<?xml version="1.0" encoding="UTF-8"?>
<svg id="Layer_1" data-name="Layer 1" xmlns="http://www.w3.org/2000/svg" viewBox="0 0 340.16 340.16">
  <g>
    <path d="M231.28,45.09c-1.25-.62-1.82-1.02-1.7-1.19,.11-.17,1.08-.31,2.89-.43,1.3,0,2.35,.36,3.15,1.06,.79,.71,1.05,1.6,.77,2.68-.11,.45-.41,1.02-.89,1.7-.48,.68-1.06,1.36-1.74,2.04-.68,.68-1.38,1.32-2.08,1.91-.71,.59-1.32,1.01-1.83,1.23-.51,.29-.81,.55-.89,.81-.08,.25,.01,.38,.3,.38,1.76,0,2.75,.28,2.98,.85,.23,.57-.34,1.28-1.7,2.13v-.08c-.4,.28-.74,.57-1.02,.85s-.42,.57-.42,.85-.11,.61-.34,.98c-.23,.37-.62,.67-1.19,.89v-.08c-1.13,.91-.99,2.04,.43,3.4,.74,.68,1.15,1.21,1.23,1.57,.09,.37-.1,.55-.55,.55-.11,0-.17,.11-.17,.34s.2,.34,.6,.34c.11,0,.28-.08,.51-.25s.4-.31,.51-.42c.17-.23,.54-.38,1.11-.47,.57-.08,1.16-.13,1.79-.13s1.19,.04,1.7,.13c.51,.08,.77,.24,.77,.47,0,.4-.2,.78-.6,1.15-.4,.37-.91,.67-1.53,.89l-3.49,1.87c-.51,.45-.84,.93-.98,1.45-.14,.51-.21,1.42-.21,2.72,0,.96,.04,1.63,.13,2,.08,.37,.21,.61,.38,.72,.57,.28,.96,.5,1.19,.64,.23,.14,.25,.27,.08,.38-.45,.34-.79,.98-1.02,1.91-.23,.94-.31,1.97-.25,3.1,0,.17,.01,.35,.04,.55,.03,.2,.04,.44,.04,.72v.85c.06,.79,.08,1.67,.08,2.64v2.3c0,1.81-.07,3.09-.21,3.83-.14,.74-.3,1.22-.47,1.45-.96,.96-1.83,1.3-2.59,1.02-.76-.28-1.63-1.16-2.59-2.64-.4-.57-.85-1.16-1.36-1.79-.51-.62-1.06-1.2-1.66-1.74-.59-.54-1.18-1.01-1.74-1.4-.57-.4-1.08-.65-1.53-.77h.08c-.79-.17-1.73,.11-2.81,.85-.57,.46-1.12,.82-1.66,1.11-.54,.28-.95,.43-1.23,.43-.96,0-1.84-.14-2.64-.43-.79-.28-1.42-.74-1.87-1.36-.34-.62-.44-1.02-.3-1.19,.14-.17,.95-.34,2.42-.51,.4,0,1.15-.23,2.25-.68,1.11-.45,2.34-.99,3.7-1.62,1.36-.62,2.72-1.28,4.08-1.96,1.36-.68,2.49-1.28,3.4-1.79l1.45-.85c.23-.4,.43-.91,.6-1.53,.17-.62,.31-1.28,.42-1.96,.11-.68,.18-1.33,.21-1.96,.03-.62,.01-1.11-.04-1.45v.08c-.11-.17-.68-.03-1.7,.43-1.02,.45-2.21,1.11-3.57,1.96-.79,.45-1.57,.87-2.34,1.23-.77,.37-1.21,.55-1.32,.55s-.44,.14-.98,.43c-.54,.28-1.15,.68-1.83,1.19-1.3,.62-2.23,.99-2.76,1.11-.54,.11-1.04-.2-1.49-.94-.34-.74-.28-1.49,.17-2.25,.45-.76,1.56-1.97,3.32-3.61,1.64-1.87,3.19-3.66,4.63-5.36,1.45-1.7,2.71-3.2,3.78-4.51,1.08-1.3,1.94-2.37,2.59-3.19,.65-.82,.98-1.32,.98-1.49l-3.32,1.11c-1.87,.85-3.7,1.53-5.49,2.04-1.79,.51-3.08,.59-3.87,.25-1.13-.62-1.62-1.01-1.45-1.15,.17-.14,1.08-.27,2.72-.38,.4,0,1.15-.18,2.25-.55,1.11-.37,2.25-.78,3.44-1.23,.96-.51,1.83-1.01,2.59-1.49,.77-.48,1.52-1.03,2.25-1.66,.74-.62,1.47-1.35,2.21-2.17,.74-.82,1.59-1.8,2.55-2.93,.4-.57,.82-1.08,1.28-1.53l1.11-1.11v-.26c-.11-.85,.06-1.5,.51-1.96,.34-.11,.48-.38,.43-.81-.06-.42-.29-.72-.68-.89Zm-1.36-7.31c.96-.28,2-.28,3.1,0,1.11,.28,1.71,.74,1.83,1.36,.06,.46-.3,.87-1.06,1.23-.77,.37-1.77,.72-3.02,1.06l-1.19,.34-.85,.25-.94,.25-2.89,.85c-.45,.23-1.05,.44-1.79,.64-.74,.2-1.33,.33-1.79,.38l-.34,.25h.08c-.11,.11-.31,.17-.59,.17-.11,1.02-.16,1.83-.13,2.42,.03,.6,.21,1.23,.55,1.91,.11,.68,.2,1.33,.25,1.96,.06,.62,.03,1.02-.08,1.19-.11,.17-.24,.5-.38,.98-.14,.48-.27,.92-.38,1.32-.11,.74-.38,1.3-.81,1.7-.42,.4-.86,.51-1.32,.34-.29-.11-.55-.31-.81-.6-.25-.28-.38-.6-.38-.94v-.08c-.79-.06-1.18-.75-1.15-2.08,.03-1.33,.33-2.91,.89-4.72,.28-.68,.51-1.32,.68-1.91,.17-.59,.28-1.06,.34-1.4-.06,0-.14-.01-.25-.04-.11-.03-.2-.04-.25-.04-.11,0-.26-.03-.43-.08-.17-.06-.31-.08-.42-.08l-.6-.25c-.68-.06-1.36-.18-2.04-.38-.68-.2-1.22-.41-1.62-.64-1.47-.96-2.1-1.5-1.87-1.62,.23-.11,1.39,.03,3.49,.42,.45,.11,1.06,.16,1.83,.13,.76-.03,1.57-.11,2.42-.26,.85-.14,1.67-.31,2.47-.51,.79-.2,1.47-.38,2.04-.55,.34-.17,.82-.38,1.45-.64,.62-.25,1.29-.52,2-.81,.71-.28,1.42-.57,2.13-.85,.71-.28,1.32-.51,1.83-.68Zm-4.68,29.51c-.23-.4-.37-.77-.42-1.11-.06-.23-.08-.4-.08-.51-.06,0-.31,.24-.77,.72-.45,.48-.91,.98-1.36,1.49-.51,.57-.98,1.11-1.4,1.62s-.84,.77-1.23,.77h-.17c0,.28-.14,.57-.42,.85l-.51,.93-1.87,2.55,.17-.08c.28-.23,.58-.41,.89-.55,.31-.14,.52-.24,.64-.3,.4-.11,.94-.34,1.62-.68,.68-.34,1.36-.71,2.04-1.11,.68-.4,1.29-.78,1.83-1.15,.54-.37,.89-.64,1.06-.81,.06-.28,.08-.69,.08-1.23s-.03-1.03-.08-1.49v.08Zm-.68,16.07c-.46,.23-1.09,.61-1.91,1.15-.82,.54-1.29,.84-1.4,.89-.4,.06-.78,.21-1.15,.47-.37,.25-.65,.54-.85,.85-.2,.31-.28,.58-.25,.81,.03,.23,.21,.34,.55,.34,.28,0,.64,.08,1.06,.26,.43,.17,.84,.42,1.23,.76,.51,.34,1.03,.62,1.57,.85,.54,.23,.86,.28,.98,.17,.23-.85,.4-1.71,.51-2.59,.11-.88,.17-1.57,.17-2.08,0-1.13-.06-1.76-.17-1.87v.08l-.34-.08Zm-4.76-52.55c-.17-.28-.21-.54-.13-.76,.09-.23,.27-.34,.55-.34l2.38,.26c2.04,.28,3.83,.71,5.36,1.28,1.53,.57,2.3,1.16,2.3,1.79s-.35,1.08-1.06,1.36c-.71,.28-1.66,.57-2.85,.85h.08l-2.21,.51c-1.02,.28-1.76,.45-2.21,.51-.45,.06-.48-.14-.08-.6,.85-.68,1.29-1.35,1.32-2,.03-.65-.44-1.23-1.4-1.74l-2.04-1.11Zm15.14,51.7c-.57-.79-1.11-1.5-1.62-2.13-.51-.62-.85-1.02-1.02-1.19l-.08,.08c-1.59-.96-2.28-1.53-2.08-1.7,.2-.17,1.57-.23,4.12-.17,1.53,.11,2.54,.3,3.02,.55,.48,.26,.81,.87,.98,1.83l.68,2.38,.17,.77c.4,1.13,.57,1.84,.51,2.13-.06,.28-.51,.42-1.36,.42-.46,0-.96-.27-1.53-.81-.57-.54-1.16-1.26-1.79-2.17Zm17.77-41.07c-.34-1.47-.23-2.22,.34-2.25,.57-.03,1.53,.69,2.89,2.17l1.19,1.79c0,.06-.06,.11-.17,.17l-1.19,1.19h.08c-.34,.34-1.11,.94-2.3,1.79s-2.5,1.76-3.91,2.72c-1.42,.96-2.79,1.87-4.12,2.72-1.33,.85-2.25,1.42-2.76,1.7-.11,.17-.17,.33-.17,.47s.17,.38,.51,.72c1.08,1.02,1.81,2.44,2.21,4.25,.28,1.53,.51,2.54,.68,3.02,.17,.48,.4,.72,.68,.72s.89-.21,1.83-.64c.94-.42,1.94-.92,3.02-1.49,1.08-.57,2.13-1.16,3.15-1.79,1.02-.62,1.79-1.16,2.3-1.62,.57-.45,1.28-.86,2.13-1.23,.85-.37,1.7-.68,2.55-.94,.85-.26,1.64-.41,2.38-.47,.74-.06,1.3,0,1.7,.17,.45,.28,.72,.55,.81,.81s-.16,.61-.72,1.06c-.51,.4-1.05,.75-1.62,1.06-.57,.31-1.08,.61-1.53,.89-.23,.11-.48,.21-.77,.3-.28,.08-.48,.18-.6,.3l-1.62,.85c-1.65,.91-2.76,1.56-3.36,1.96-.59,.4-.89,.94-.89,1.62,0,.34,.03,.81,.08,1.4,.06,.6,.2,1.32,.42,2.17,.17,.51,.3,1.26,.38,2.25,.08,.99,.17,2.1,.25,3.32,.08,1.22,.14,2.51,.17,3.87,.03,1.36,.04,2.72,.04,4.08,0,2.04-.03,3.79-.08,5.23-.06,1.45-.17,2.34-.34,2.68-.17,.28-.33,.72-.47,1.32-.14,.59-.27,1.15-.38,1.66,0,.74-.13,1.45-.38,2.13-.25,.68-.54,1.28-.85,1.79-.31,.51-.64,.88-.98,1.11-.34,.23-.62,.23-.85,0-.23-.17-.34-.41-.34-.72s.06-.69,.17-1.15c.17-.46,.28-1.62,.34-3.49,.06-1.87,.08-4.08,.08-6.63,0-2.21-.03-4.48-.08-6.8-.06-2.32-.11-4.46-.17-6.42-.06-1.96-.11-3.57-.17-4.85-.06-1.28-.11-2-.17-2.17h.08c-.11-.11-.43-.13-.94-.04-.51,.09-1.28,.36-2.3,.81-1.65,.34-2.76,.82-3.36,1.45-.6,.62-.89,1.65-.89,3.06,0,.51-.18,1.22-.55,2.13-.37,.91-.81,1.83-1.32,2.76-.51,.94-1.01,1.74-1.49,2.42-.48,.68-.84,1.02-1.06,1.02-.74,0-1.32-.33-1.74-.98-.42-.65-.64-1.37-.64-2.17,0-.51,.1-1.23,.3-2.17,.2-.94,.47-1.83,.81-2.68,.45-1.13,.89-2.37,1.32-3.7,.42-1.33,.78-2.61,1.06-3.83,.28-1.22,.48-2.31,.6-3.27,.11-.96,.11-1.7,0-2.21-.11-.28-.3-.6-.55-.94s-.5-.59-.72-.77c-1.13-.68-1.47-1.35-1.02-2,.45-.65,1.56-1.49,3.32-2.51,1.08-.62,2.3-1.42,3.66-2.38,1.36-.96,2.44-1.76,3.23-2.38,1.19-1.13,1.98-2.03,2.38-2.68,.4-.65,.54-1.23,.42-1.74Z"/>
    <path d="M210.88,120.12c0-.62,.37-.77,1.11-.43,.74,.34,1.42,.88,2.04,1.62,.45,.57,.82,1.22,1.11,1.96,.28,.74,.54,1.67,.76,2.81,.23,1.13,.41,2.55,.55,4.25,.14,1.7,.3,3.77,.47,6.21,0,.29,.01,.54,.04,.77,.03,.23,.04,.45,.04,.68,.11,1.76,.2,3.06,.26,3.91,.06,.57,.08,1.08,.08,1.53,.11-.28,.28-.55,.51-.81,.23-.26,.4-.38,.51-.38,.45,0,.65,.17,.59,.51-.06,.34-.4,1.42-1.02,3.23-.28,.85-.54,1.77-.76,2.76-.23,.99-.4,1.8-.51,2.42-.06,.79-.2,1.57-.42,2.34-.23,.77-.5,1.45-.81,2.04-.31,.59-.64,1.09-.98,1.49-.34,.4-.62,.59-.85,.59-.28,0-.61-.14-.98-.42-.37-.28-.7-.62-.98-1.02-.23-.28-.4-.57-.51-.85-.11-.28-.17-.67-.17-1.15s.06-1.15,.17-2c.11-.85,.28-1.98,.51-3.4,.45-3.63,.84-6.83,1.15-9.61,.31-2.78,.47-5.13,.47-7.06v-2.64c0-1.36-.03-2.47-.08-3.32-.06-.85-.13-1.54-.21-2.08-.08-.54-.21-.96-.38-1.28-.17-.31-.37-.64-.59-.98h.08c-.4-.4-.7-.75-.89-1.06-.2-.31-.3-.52-.3-.64Zm22.79-4.51c1.13-.79,1.63-.88,1.49-.26-.14,.62-.72,1.65-1.74,3.06-.4,.51-.75,.98-1.06,1.4-.31,.43-.52,.7-.64,.81,.11,.11,.13,.31,.04,.6-.08,.28-.24,.57-.47,.85-.34,.74-.31,1.16,.08,1.28,.79,.28,1.77,.34,2.93,.17,1.16-.17,2.34-.57,3.53-1.19,1.47-.62,2.73-.99,3.78-1.11,1.05-.11,1.94,0,2.68,.34,.28,.17,.45,.4,.51,.68,.06,.28,.06,.48,0,.59-.06,.17-.3,.38-.72,.64-.43,.25-.96,.52-1.62,.81-.65,.28-1.38,.57-2.17,.85-.79,.28-1.56,.54-2.3,.76-.17,.06-.38,.26-.64,.6s-.51,.74-.77,1.19c-.25,.45-.45,.91-.59,1.36-.14,.46-.18,.79-.13,1.02l.51-.68,.68-.68h-.08c1.02-1.7,2.3-2.82,3.83-3.36,1.53-.54,2.78-.35,3.74,.55,.74,.79,1.25,2.17,1.53,4.12,.28,1.96,.42,5.09,.42,9.4v4.29c0,1.05,.03,1.83,.08,2.34,.06,.51,.14,.82,.26,.94,.11,.11,.28,.17,.51,.17,.62,0,.94-.25,.94-.76,0-.62,.27-1.02,.81-1.19,.54-.17,.98,.03,1.32,.59,.06,.11,.34,.21,.85,.3,.51,.08,1.08,.13,1.7,.13,1.47,0,2.55,.21,3.23,.64,.68,.42,.88,1.01,.6,1.74-.11,.17-.33,.35-.64,.55-.31,.2-.67,.35-1.06,.47-.17,0-.41,.03-.72,.08-.31,.06-.69,.14-1.15,.25l-3.23,.51-3.91,.85-.51,4.42c-.34,3.35-.93,5.9-1.79,7.65-.46,.68-.81,1.37-1.06,2.08-.25,.71-.38,1.2-.38,1.49,0,.45-.31,.68-.94,.68-.45-.17-.68-.4-.68-.68,.06-.57,.17-1.64,.34-3.23s.31-3.2,.43-4.85c.11-1.64,.21-3.1,.3-4.38s.1-1.94,.04-2c-.06-.11-.48-.07-1.28,.13-.79,.2-1.67,.53-2.64,.98l-1.62,.59c-1.25,.45-2.5,.91-3.74,1.36-1.25,.46-2.83,.96-4.76,1.53-1.13,.4-2.08,.62-2.85,.68-.76,.06-1.52-.06-2.25-.34-1.19-.45-1.87-.92-2.04-1.4-.17-.48,.31-.98,1.45-1.49,.45-.23,1.16-.64,2.13-1.23,.96-.6,1.94-1.23,2.93-1.91,.99-.68,1.88-1.3,2.68-1.87,.79-.57,1.25-.94,1.36-1.11,.11-.06,.11-.27,0-.64-.11-.37-.23-.75-.34-1.15-.17-.45-.3-.86-.38-1.23-.08-.37-.13-.81-.13-1.32,0-.62,.08-1.53,.25-2.72,.17-.79,.3-1.73,.38-2.81,.08-1.08,.13-1.87,.13-2.38,0-.68,.17-1.62,.51-2.81,.34-1.19,.71-2.35,1.11-3.49l1.36-3.66-1.7-.51h.08c-.57-.11-1.09-.3-1.57-.55-.48-.25-.78-.52-.89-.81-.11-.11-.36-.23-.72-.34-.37-.11-.78-.14-1.23-.09-.45,.06-1.02,.03-1.7-.08-.68-.11-1.25-.23-1.7-.34-.46-.17-.91-.48-1.36-.94-.45-.45-.86-.95-1.23-1.49-.37-.54-.68-1.09-.94-1.66-.25-.57-.38-1.08-.38-1.53,0-.74,.1-1.08,.3-1.02,.2,.06,.86,.62,2,1.7,.96,.91,1.64,1.45,2.04,1.62,.4,.17,.96,.11,1.7-.17,.51-.23,1.13-.54,1.87-.94,.74-.4,1.36-.82,1.87-1.28l2.21-1.53,.94-.68Zm-12.84-9.1c-.17-.45,.88-.65,3.15-.6,1.47,.06,2.65,.19,3.53,.38,.88,.2,1.86,.61,2.93,1.23,.85,.51,1.54,.96,2.08,1.36,.54,.4,.86,.74,.98,1.02,.23,.57,.03,1.09-.6,1.57-.62,.48-1.42,.72-2.38,.72-.28,0-.69,.1-1.23,.3-.54,.2-1.06,.53-1.57,.98-.62,.28-1.18,.51-1.66,.68s-.78,.11-.89-.17c-.06-.11-.06-.48,0-1.11,.06-.62,.17-1.28,.34-1.96,.28-.91,.3-1.53,.04-1.87-.25-.34-1.06-.74-2.42-1.19-.45-.17-.84-.34-1.15-.51-.31-.17-.53-.31-.64-.43l-.43-.42h-.08Zm21.77,34.61c.06-.68,.1-1.35,.13-2,.03-.65,.04-1.26,.04-1.83,0-2.04-.06-3.12-.17-3.23-.06,.06-.11,.14-.17,.25-.06,.11-.13,.2-.21,.26s-.18,.14-.3,.25l-1.02,.85c-.34,.4-.77,.88-1.28,1.45-.51,.57-.99,1.08-1.45,1.53-.68,.74-.95,1.23-.81,1.49,.14,.26,.61,.38,1.4,.38,2.38,0,3.57,.48,3.57,1.45,0,.68-.68,1.47-2.04,2.38-.57,.28-1.46,.88-2.68,1.79-1.22,.91-2.44,1.84-3.66,2.81-1.22,.96-2.28,1.84-3.19,2.64-.91,.79-1.3,1.22-1.19,1.28,.11,.17,.55,.17,1.32,0s1.52-.43,2.25-.77c.62-.28,1.39-.59,2.3-.94,.91-.34,1.7-.65,2.38-.94l.77-.34c.79-.17,1.52-.4,2.17-.68,.65-.28,1.03-.51,1.15-.68,.06-.06,.11-.3,.17-.72,.06-.43,.11-.98,.17-1.66,.06-.68,.11-1.46,.17-2.34s.11-1.77,.17-2.68Zm-5.78,1.62c-.06-.11-.21-.23-.47-.34-.25-.11-.5-.23-.72-.34-.57-.11-.95,0-1.15,.34-.2,.34-.3,1.16-.3,2.47l.08,1.19,.72-.72c.31-.31,.52-.55,.64-.72,.28-.45,.55-.86,.81-1.23,.26-.37,.38-.58,.38-.64Zm.77-9.78c-.17-.34-.54-.4-1.11-.17-.11,.28-.28,.71-.51,1.28-.23,.57-.45,1.16-.68,1.79-.23,.62-.41,1.18-.55,1.66-.14,.48-.18,.72-.13,.72,.11,.11,.35-.08,.72-.6,.37-.51,.74-1.09,1.11-1.74,.37-.65,.67-1.28,.89-1.87,.23-.6,.31-.95,.25-1.06Zm4.85-3.83c-.06-.57-.14-1.06-.25-1.49-.11-.42-.23-.64-.34-.64-.51-.17-1.11-.04-1.79,.38-.68,.43-1.16,.95-1.45,1.57-.17,.4-.3,.71-.38,.94-.08,.23-.06,.41,.08,.55,.14,.14,.42,.25,.85,.34,.42,.09,1.03,.19,1.83,.3l1.53,.34c0-.4-.01-.79-.04-1.19-.03-.4-.04-.76-.04-1.11Zm13.27-22.11c.74-.51,1.81-.77,3.23-.77,.79,0,1.59,.11,2.38,.34,.79,.23,1.42,.57,1.87,1.02,.28,.28,.5,.53,.64,.72,.14,.2,.23,.41,.25,.64,.03,.23,.01,.51-.04,.85-.06,.34-.14,.77-.25,1.28-.23,.68-.4,2.37-.51,5.06-.11,2.69-.17,5.83-.17,9.4,0,3.06,.04,6.24,.13,9.52,.08,3.29,.24,6.29,.47,9.01,.11,1.93,.18,3.54,.21,4.85,.03,1.3,.04,2.44,.04,3.4,0,1.25-.04,2.31-.13,3.19-.08,.88-.21,1.89-.38,3.02-.23,1.3-.42,2.37-.59,3.19-.17,.82-.36,1.52-.55,2.08-.2,.57-.44,1.05-.72,1.45-.29,.4-.62,.79-1.02,1.19h.08c-.74,.79-1.23,1.22-1.49,1.28-.25,.06-.38-.25-.38-.94,0-.4-.06-.7-.17-.89-.11-.2-.23-.36-.34-.47v.08c-.17-.06-.31-.24-.42-.55-.11-.31-.17-.61-.17-.89,0-.17-.23-.72-.68-1.66-.45-.94-.94-1.97-1.45-3.1-.62-1.02-1.13-1.93-1.53-2.72-.4-.79-.51-1.28-.34-1.45,.23-.23,.67-.21,1.32,.04,.65,.25,.98,.52,.98,.81,0,.06,.16,.17,.47,.34,.31,.17,.65,.37,1.02,.6,.37,.23,.72,.41,1.06,.55,.34,.14,.57,.18,.68,.13v.08c.23-.23,.43-1.19,.6-2.89,.17-1.7,.25-3.74,.25-6.12v-1.79c0-.57-.03-1.16-.08-1.79v-2.42c0-.94-.03-1.97-.08-3.1l-.34-14.97c0-1.76-.01-3.47-.04-5.14-.03-1.67-.06-3.17-.08-4.51-.03-1.33-.06-2.44-.08-3.32-.03-.88-.07-1.4-.13-1.57-.06-.62-.37-1.01-.94-1.15-.57-.14-1.22,.1-1.96,.72-1.48,.96-2.58,1.86-3.32,2.68-.74,.82-1.11,1.38-1.11,1.66s-.13,.62-.38,1.02c-.26,.4-.55,.82-.89,1.28-.79,.91-1.99,1.36-3.57,1.36-.68,0-1.35-.11-2-.34-.65-.23-1.21-.57-1.66-1.02v.08c-.45-.28-.79-.65-1.02-1.11-.23-.45-.34-.79-.34-1.02,0-.51,.14-.76,.42-.76s.82,.17,1.62,.51c.51,.23,.98,.28,1.4,.17,.42-.11,1.15-.54,2.17-1.28,.74-.45,1.57-1.01,2.51-1.66,.94-.65,1.71-1.2,2.34-1.66v.08c.45-.45,1.02-.98,1.7-1.57,.68-.6,1.19-.95,1.53-1.06Z"/>
    <path d="M221.08,172.28c.23-.11,.48-.18,.77-.21,.28-.03,.51,.01,.68,.13,1.47,.45,2.58,.89,3.32,1.32,.74,.42,1.33,1.01,1.79,1.74,.45,.85,.89,1.43,1.32,1.74,.43,.31,1.26,.47,2.51,.47,.91,0,1.63,.11,2.17,.34,.54,.23,1.06,.54,1.57,.94l.08,.17c.23,.4,.44,.78,.64,1.15,.2,.37,.3,.61,.3,.72,0,.34-.23,.81-.68,1.4-.45,.6-.98,1.19-1.57,1.79-.6,.59-1.19,1.12-1.79,1.57-.59,.45-1.06,.71-1.4,.76-.45,.11-.82,.36-1.11,.72-.28,.37-.47,.79-.55,1.28-.08,.48-.08,.96,0,1.45,.08,.48,.27,.87,.55,1.15,.62,.45,.96,.91,1.02,1.36,.06,.45-.23,.99-.85,1.62h.17c-.46,.51-.87,1.15-1.23,1.91-.37,.77-.61,1.4-.72,1.91l-.43,2.04,2.13-.25c1.25-.17,2.52-.25,3.83-.25,.79,0,1.54,.04,2.25,.13,.71,.08,1.2,.21,1.49,.38,1.42,1.02,.74,2.92-2.04,5.7-.74,.74-1.43,1.39-2.08,1.96-.65,.57-1.06,.85-1.23,.85-.23,0-.57,.14-1.02,.43-.46,.28-.92,.61-1.4,.98-.48,.37-.89,.75-1.23,1.15s-.51,.71-.51,.93c0,.34,.34,.65,1.02,.94l.51,.34c1.13,.45,1.57,1.01,1.32,1.66-.25,.65-1.12,1.57-2.59,2.76-.96,.79-1.82,1.59-2.55,2.38-.74,.79-1.11,1.28-1.11,1.45,0,.23,.18,.51,.55,.85,.37,.34,.78,.57,1.23,.68,.45,.11,.98,.33,1.57,.64,.6,.31,1.03,.61,1.32,.89,.62,.46,1.08,.7,1.36,.72,.28,.03,.71-.21,1.28-.72,.17,0,.4-.14,.68-.42h.08l.51,3.74,.17,1.19c.11,1.81,.14,3.03,.08,3.66-.06,.62-.28,.99-.68,1.11-.57,.23-1.33-.18-2.3-1.23-.96-1.05-1.76-2.34-2.38-3.87-.62-1.76-1.28-3.09-1.96-4-.68-.91-1.25-1.36-1.7-1.36-.11,0-.31,.16-.59,.47-.28,.31-.61,.74-.98,1.28-.37,.54-.78,1.15-1.23,1.83-.46,.68-.88,1.39-1.28,2.13-.17,.23-.33,.44-.47,.64-.14,.2-.27,.41-.38,.64-.79,1.08-1.45,1.99-1.96,2.72-.51,.74-.77,1.13-.77,1.19-.23,.17-.62,.48-1.19,.93-.57,.45-1.11,.99-1.62,1.62-.74,.96-1.35,1.62-1.83,1.96-.48,.34-.95,.48-1.4,.42-.51-.11-.76-.4-.76-.85s.17-.91,.51-1.36c.11,.23,.28,.34,.51,.34,.11,0,.52-.47,1.23-1.4,.71-.94,1.49-2.01,2.34-3.23,.85-1.22,1.67-2.45,2.47-3.7s1.36-2.21,1.7-2.89c.34-.74,.58-1.3,.72-1.7,.14-.4,.04-.61-.3-.64-.34-.03-.95,.11-1.83,.43-.88,.31-2.17,.78-3.87,1.4-1.25,.57-2.47,.98-3.66,1.23-1.19,.25-2.27,.38-3.23,.38-1.36,0-2.54-.24-3.53-.72-.99-.48-1.66-1.09-2-1.83-.11-.17,0-.24,.34-.21,.34,.03,.68,.1,1.02,.21,.79,.4,1.73,.6,2.81,.6,1.64,0,3.46-.34,5.44-1.02,.85-.34,1.9-.82,3.15-1.45,1.25-.62,2.49-1.28,3.74-1.96,1.25-.68,2.39-1.35,3.44-2,1.05-.65,1.77-1.18,2.17-1.57,.57-.62,1.05-1.52,1.45-2.68,.4-1.16,.54-2.31,.43-3.44-.11-.96-.51-1.91-1.19-2.85-.68-.93-1.3-1.4-1.87-1.4-.28,0-.75,.21-1.4,.64-.65,.42-1.38,.96-2.17,1.62-.79,.65-1.59,1.38-2.38,2.17-.79,.79-1.47,1.56-2.04,2.3-.45,.74-.88,1.36-1.28,1.87-.4,.51-.65,.71-.77,.59-.34-.11-.57-.71-.68-1.79-.06-.45-.07-.84-.04-1.15,.03-.31,.13-.62,.3-.94,.17-.31,.42-.65,.77-1.02,.34-.37,.82-.86,1.45-1.49,1.87-1.81,3.26-3.3,4.17-4.46,.91-1.16,1.3-2.11,1.19-2.85,0-.51,.17-.76,.51-.76,.45,.06,.95-.21,1.49-.81,.54-.59,1.12-1.37,1.74-2.34-.11,.11-.04-.03,.21-.43,.26-.4,.44-.65,.55-.76,.28-.74,.48-1.43,.6-2.08,.11-.65,.11-1.12,0-1.4-.62,.28-1.25,.57-1.87,.85-.62,.28-1.3,.58-2.04,.89-.74,.31-1.53,.7-2.38,1.15-3.52,1.47-6.19,2.4-8.04,2.76-1.84,.37-3.1,.24-3.78-.38h.08c-.28-.45-.44-1.06-.47-1.83-.03-.77,.07-1.37,.3-1.83,.11,.06,.23,.17,.34,.34,.11,.17,.23,.31,.34,.43,.28,.91,1.16,1.28,2.64,1.11,1.19-.17,2.85-.68,4.97-1.53s4.55-1.9,7.27-3.15c.85-.4,1.52-.74,2-1.02,.48-.28,.86-.57,1.15-.85s.47-.61,.55-.98c.08-.37,.16-.84,.21-1.4,.17-1.59,.24-2.9,.21-3.95-.03-1.05-.18-1.57-.47-1.57-.23,0-.52,.17-.89,.51-.37,.34-.77,.77-1.19,1.28-.43,.51-.81,1.05-1.15,1.62-.34,.57-.6,1.05-.77,1.45-.17,.45-.42,.98-.77,1.57-.34,.6-.65,1.06-.93,1.4-.34,.4-.61,.62-.81,.68-.2,.06-.5-.03-.89-.25-.96-.45-1.67-1.26-2.13-2.42-.45-1.16-.68-2.82-.68-4.97,0-2.61,.2-3.91,.6-3.91,.17,0,.51,.88,1.02,2.64,.23,.62,.5,1.25,.81,1.87,.31,.62,.64,1.02,.98,1.19,.28,0,.76-.23,1.45-.68,.68-.45,1.39-.98,2.13-1.57,.74-.6,1.4-1.19,2-1.79,.6-.59,.98-1.06,1.15-1.4,.11-.23,.16-.65,.13-1.28-.03-.62-.1-1.28-.21-1.96-.28-.96-.58-1.66-.89-2.08-.31-.43-.86-.86-1.66-1.32-.57-.28-.93-.47-1.11-.55-.17-.08-.2-.18-.08-.3Zm-10.63,64.04c0-.06,.06-.14,.17-.26l-.17,.26Zm23.05-34.7c0-.45-.62-.6-1.87-.42-.34,.11-.59,.17-.76,.17-.11,0-.19,.01-.21,.04-.03,.03-.07,.04-.13,.04h-.34c-.79,.11-1.29,.3-1.49,.55-.2,.25-.3,.81-.3,1.66,0,.34-.01,.72-.04,1.15-.03,.43-.07,.87-.13,1.32,0,.11-.01,.18-.04,.21-.03,.03-.04,.1-.04,.21v.34l-.94,2.98,2.47-2.04c.34-.28,.74-.72,1.19-1.32,.45-.6,.86-1.22,1.23-1.87,.37-.65,.69-1.26,.98-1.83,.28-.57,.42-.96,.42-1.19Zm-1.62-22.28c0-.4-.38-.67-1.15-.81s-1.38,.01-1.83,.47v-.09c-.17,.06-.3,.38-.38,.98-.08,.59-.13,1.29-.13,2.08,0,1.13,.1,1.86,.3,2.17,.2,.31,.58,.41,1.15,.3,.23-.06,.45-.28,.68-.68,.23-.4,.44-.86,.64-1.4,.2-.54,.37-1.09,.51-1.66,.14-.57,.21-1.02,.21-1.36Zm.59,44.31l.17-.17c.23,.28,.17,.42-.17,.42v-.25Zm2.13-14.37c0-.11,.3-.04,.89,.21,.6,.25,1.32,.69,2.17,1.32,1.02,.62,1.69,1.32,2,2.08s.33,1.54,.04,2.34c-.17,.28-.45,.59-.85,.94-.4,.34-.78,.65-1.15,.94-.37,.28-.72,.5-1.06,.64s-.57,.16-.68,.04c.06-.28,.08-.57,.08-.85v-.81c0-.25,.03-.52,.09-.81,.28-1.59,.2-2.83-.26-3.74-.45-.57-.78-1.06-.98-1.49-.2-.42-.3-.69-.3-.81Zm13.52,11.23c1.42-.62,2.69-.85,3.83-.68,1.98,.34,2.98,.99,2.98,1.96,0,.51-.48,1.16-1.45,1.96-.34,.28-.79,.75-1.36,1.4-.57,.65-1.02,1.26-1.36,1.83-.4,.68-.89,1.38-1.49,2.08-.59,.71-1.22,1.36-1.87,1.96-.65,.6-1.33,1.13-2.04,1.62-.71,.48-1.38,.81-2,.98-1.02,.45-1.73,.68-2.13,.68,0-.11,.17-.38,.51-.81,.34-.42,.79-.95,1.36-1.57h-.08c.57-.57,1.18-1.28,1.83-2.13,.65-.85,1.23-1.7,1.74-2.55,.51-.85,.94-1.62,1.28-2.3,.34-.68,.51-1.13,.51-1.36-.17-.06-.47-.07-.89-.04-.43,.03-.81,.1-1.15,.21-.11,0-.17,.01-.17,.04,0,.03-.06,.04-.17,.04-.46,.11-.91,.2-1.36,.25-.46,.06-.88,.08-1.28,.08-.34,0-.75-.07-1.23-.21-.48-.14-.98-.31-1.49-.51-.51-.2-.98-.41-1.4-.64-.42-.23-.75-.45-.98-.68-.17-.34-.09-.55,.25-.64,.34-.08,.79-.01,1.36,.21,.91,.51,2.01,.65,3.32,.42,1.3-.23,2.95-.76,4.93-1.62Zm4.42-39.46c2.27-1.19,4.08-1.79,5.44-1.79,1.08,0,1.98,.37,2.72,1.11h-.08c.4,.57,.59,.99,.59,1.28s-.14,.57-.42,.85c-.11,.23-.4,.34-.85,.34s-1.21,.33-2.25,.98c-1.05,.65-2.14,1.45-3.27,2.38-1.13,.94-2.18,1.89-3.15,2.85s-1.59,1.73-1.87,2.3c-.17,.51-.34,1.3-.51,2.38-.17,1.08-.3,2.13-.38,3.15s-.1,1.89-.04,2.59c.06,.71,.23,.98,.51,.81,.06-.06,.13-.13,.21-.21s.16-.18,.21-.3c.28-.34,.69-.81,1.23-1.4,.54-.59,1.12-1.2,1.74-1.83,1.7-1.81,3.16-3.12,4.38-3.91,1.22-.79,2.45-1.19,3.7-1.19,.79,0,1.45,.1,1.96,.3,.51,.2,.92,.58,1.23,1.15,.31,.57,.57,1.32,.77,2.25,.2,.94,.38,2.14,.55,3.61,.11,1.19,.21,2.51,.3,3.95,.08,1.45,.13,2.85,.13,4.21,0,1.76-.06,3.53-.17,5.31-.11,1.79-.27,3.49-.47,5.1-.2,1.62-.44,3.08-.72,4.38-.28,1.3-.6,2.35-.94,3.15-.11,.28-.07,.64,.13,1.06,.2,.43,.5,.78,.89,1.06,.74,.62,1.53,1.38,2.38,2.25,.85,.88,1.63,1.79,2.34,2.72,.71,.94,1.29,1.83,1.74,2.68,.45,.85,.68,1.5,.68,1.96s-.4,.67-1.19,.64c-.79-.03-1.82-.3-3.06-.81-.62-.23-1.28-.44-1.96-.64-.68-.2-1.22-.3-1.62-.3-.51,0-.75-.14-.72-.43,.03-.28,.33-.57,.89-.85,.79-.51,1.19-.96,1.19-1.36,0-.23-.23-.68-.68-1.36-.45-.68-1.01-1.39-1.66-2.13-.65-.74-1.32-1.45-2-2.13-.68-.68-1.25-1.16-1.7-1.45-.62-.4-.87-.69-.72-.89,.14-.2,.44-.3,.89-.3,1.3,.11,2.04-.14,2.21-.77,.11-.51,.2-1.67,.25-3.49s.08-3.91,.08-6.29c0-1.81-.01-3.68-.04-5.61-.03-1.93-.07-3.73-.13-5.4-.06-1.67-.13-3.13-.21-4.38-.08-1.25-.16-2.13-.21-2.64-.28-.96-.54-1.69-.77-2.17-.23-.48-.57-.72-1.02-.72-.34,0-.75,.18-1.23,.55-.48,.37-1.09,.87-1.83,1.49-.51,.57-1.06,1.19-1.66,1.87-.59,.68-1.15,1.35-1.66,2-.51,.65-.94,1.22-1.28,1.7s-.51,.81-.51,.98c0,.11,.27,.13,.81,.04,.54-.09,1.12-.27,1.74-.55,1.64-.51,2.64-.34,2.98,.51,.34,.85-.11,2.27-1.36,4.25-.91,1.47-1.36,2.38-1.36,2.72s.48,.51,1.45,.51c1.64,0,2.47,.71,2.47,2.13,0,.68-.27,1.42-.81,2.21-.54,.79-1.32,1.5-2.34,2.13-.62,.28-1.25,.64-1.87,1.06-.62,.42-1.11,.78-1.45,1.06-.91,.68-1.15,.6-.72-.25,.42-.85,1.37-2.18,2.85-4l1.11-1.53-1.7-1.28c-.91-.51-1.46-1.22-1.66-2.13-.2-.91-.07-1.9,.38-2.98,.28-.91,.11-1.36-.51-1.36-.51,0-.91,.08-1.19,.26-.28,.17-.51,.5-.68,.98-.17,.48-.31,1.18-.43,2.08-.11,.91-.2,2.07-.25,3.49-.11,1.53-.24,2.96-.38,4.29-.14,1.33-.3,2.11-.47,2.34-.45,.62-.95,.82-1.49,.6-.54-.23-1.09-.77-1.66-1.62-.28-.45-.5-.85-.64-1.19-.14-.34-.21-.71-.21-1.11,0-.34,.07-.78,.21-1.32,.14-.54,.3-1.15,.47-1.83,.28-1.08,.57-2.61,.85-4.59,.28-1.98,.54-3.86,.77-5.61,.51-3.23,1.16-5.9,1.96-7.99,.79-2.1,1.98-4.03,3.57-5.78,1.25-1.3,1.83-2.18,1.74-2.64-.08-.45-.78-.37-2.08,.25-.74,.4-1.53,.6-2.38,.6-1.93,0-3.6-.79-5.02-2.38-.62-.57-1.06-1.12-1.32-1.66-.25-.54-.24-.81,.04-.81l.68,.34c.11,.11,.3,.23,.55,.34,.25,.11,.44,.2,.55,.25,.96,.68,2.04,1.02,3.23,1.02,1.3,0,3.03-.51,5.19-1.53Z"/>
    <path d="M221.51,293.91c.62-.57,1.12-.98,1.49-1.23,.37-.25,.61-.38,.72-.38,.23,0,.44,.27,.64,.81,.2,.54,.35,1.16,.47,1.87,.11,.71,.2,1.38,.25,2,.06,.62,.03,1.02-.08,1.19-.17,.28-.48,.48-.94,.6-.45,.11-.94,.17-1.45,.17s-1.02-.06-1.53-.17c-.51-.11-.94-.28-1.28-.51-.28-.23-.7-.48-1.23-.76-.54-.28-1.12-.55-1.74-.81-.62-.25-1.23-.47-1.83-.64s-1.06-.25-1.4-.25c-.28,0-.72,.24-1.32,.72-.59,.48-1.15,.95-1.66,1.4-1.59,1.7-2.92,2.55-4,2.55-.46,0-.89-.11-1.32-.34-.43-.23-.92-.54-1.49-.94l-1.62-1.36c-.11-.17-.14-.37-.08-.6,.06-.23,.23-.34,.51-.34l1.96,.34c.96,.17,2.38-.4,4.25-1.7,.79-.62,1.57-1.09,2.34-1.4,.77-.31,1.63-.47,2.59-.47s2.44,.25,4.42,.77h-.09c1.25,.28,2.01,.38,2.3,.3,.28-.08,.62-.35,1.02-.81h.08Zm-.43-47.54c0-.45,.3-.58,.89-.38,.59,.2,1.37,.7,2.34,1.49,.62,.57,1.09,1.13,1.4,1.7,.31,.57,.47,1.28,.47,2.13,0,2.21-1.02,4.73-3.06,7.57-.62,.79-1.09,1.57-1.4,2.34s-.47,1.26-.47,1.49c0,.34-.11,.68-.34,1.02-.23,.34-.45,.57-.68,.68-.23,.11-.47,.34-.72,.68-.25,.34-.47,.74-.64,1.19l-.25,.34c.4-.11,.85-.2,1.36-.25,.51-.06,.99-.11,1.45-.17,.96-.06,1.76-.01,2.38,.13,.62,.14,.99,.44,1.11,.89,.4,1.53-.37,3.43-2.3,5.7-1.19,1.59-2.27,3.05-3.23,4.38-.96,1.33-1.45,2.03-1.45,2.08,0,.29-.13,.65-.38,1.11-.25,.46-.58,.99-.98,1.62l-1.11,1.36,2.64-1.53c1.81-1.36,3.36-2.22,4.63-2.59,1.28-.37,2.56-.47,3.87-.3,.91,.11,1.6,.34,2.08,.68,.48,.34,.72,.74,.72,1.19,0,1.19-.96,2.35-2.89,3.49-.57,.4-1.13,.74-1.7,1.02-.57,.28-1.08,.48-1.53,.6-.96,.11-1.47,0-1.53-.34-.06-.34,.14-.99,.6-1.96,.11-.17,.2-.4,.25-.68,.06-.28,.14-.45,.25-.51l-6.55,3.91c-2.5,1.65-4.21,2.52-5.15,2.64-.93,.11-1.57-.4-1.91-1.53,0-.62,.28-1.53,.85-2.72,.57-1.19,1.36-2.61,2.38-4.25,.85-1.47,1.62-2.74,2.3-3.79,.68-1.05,1.02-1.6,1.02-1.66,0-.45,.28-1.02,.85-1.7l.6-.68c.68-.68,1.2-1.29,1.57-1.83,.37-.54,.47-.81,.3-.81-.4,.17-.79,.34-1.19,.51-.34,.11-.72,.25-1.15,.43-.43,.17-.87,.34-1.32,.51-2.16,.96-3.57,1.46-4.25,1.49-.68,.03-1.13-.44-1.36-1.4v.08c-.11-.4,.1-.98,.64-1.74,.54-.77,1.66-2.03,3.36-3.78,.96-1.02,1.9-2.18,2.81-3.49,.91-1.3,1.59-2.35,2.04-3.15,.23-.57,.57-1.3,1.02-2.21,.45-.91,.85-1.62,1.19-2.13,.68-1.42,1.13-2.78,1.36-4.08,.23-1.3,.06-2.27-.51-2.89-.45-.62-.68-1.25-.68-1.87Zm30.02,7.06c1.02-.57,2.1-.96,3.23-1.19,1.13-.23,2.27-.34,3.4-.34,1.47,0,2.71,.26,3.7,.77,.99,.51,1.49,1.25,1.49,2.21,0,.4-.14,.78-.43,1.15-.28,.37-.79,.89-1.53,1.57-.57,.45-1.3,1.05-2.21,1.79-.91,.74-1.73,1.33-2.47,1.79-.85,.62-1.56,1.16-2.13,1.62-.57,.45-.77,.68-.6,.68,1.3,0,1.77,.48,1.4,1.45-.37,.96-1.23,2.1-2.59,3.4-.23,.23-.57,.54-1.02,.94-.45,.4-.68,.62-.68,.68,.79,.23,1.71,.71,2.76,1.45,1.05,.74,1.77,1.5,2.17,2.3,.17,.28,.38,.5,.64,.64,.25,.14,.81,.1,1.66-.13h.34c2.32-.4,4.14-.6,5.44-.6,.62,0,1.15,.1,1.57,.3,.42,.2,.95,.58,1.57,1.15,.57,.62,.98,1.25,1.23,1.87,.25,.62,.44,1.62,.55,2.98,.06,.96,.04,2.04-.04,3.23s-.23,2.41-.43,3.66c-.2,1.25-.42,2.5-.68,3.74-.26,1.25-.5,2.41-.72,3.49-.79,2.33-1.96,4.12-3.49,5.4-1.53,1.28-3.01,1.91-4.42,1.91l-1.11-.42-.34,3.91c-.11,1.53-.21,2.76-.3,3.7-.08,.94-.2,1.7-.34,2.3-.14,.59-.33,1.06-.55,1.4-.23,.34-.51,.65-.85,.94-.46,.34-.79,.55-1.02,.64-.23,.08-.4-.03-.51-.34-.11-.31-.18-.87-.21-1.66-.03-.79-.04-1.87-.04-3.23-.11-2.5-.21-4.45-.3-5.87-.08-1.42-.18-2.51-.3-3.27-.11-.77-.27-1.29-.47-1.57-.2-.28-.41-.54-.64-.77-.06-.11-.08-.2-.08-.25v-.17l-.34-.34,.08,.17-.94-.6c-.28-.11-.38-.31-.3-.6,.08-.28,.27-.42,.55-.42l1.28-.08h.85l-.25-2.38c-.17-1.19-.37-2.15-.59-2.89-.23,.11-.65,.41-1.28,.89-.62,.48-1.16,.95-1.62,1.4-.17,.11-.38,.54-.64,1.28-.25,.74-.53,1.5-.81,2.3-.11,.96-.36,1.81-.72,2.55-.37,.74-.67,1.11-.89,1.11-.28,0-.57-.14-.85-.42-.28-.28-.57-.64-.85-1.06-.28-.42-.51-.88-.68-1.36-.17-.48-.25-.92-.25-1.32,0-.62-.51-.85-1.53-.68-.34,.29-.62,.64-.85,1.06s-.34,1.04-.34,1.83c0,.91-.03,1.62-.08,2.13-.06,.51-.17,.89-.34,1.15-.17,.25-.43,.38-.77,.38s-.82-.06-1.45-.17c-.79-.28-1.35-1.01-1.66-2.17-.31-1.16-.5-3.33-.55-6.51,0-1.36-.04-2.61-.13-3.74-.08-1.13-.18-1.84-.3-2.13-.34-.23-.98-.16-1.91,.21-.94,.37-1.97,.95-3.1,1.74-.79,.62-1.56,1.15-2.3,1.57-.74,.42-1.22,.61-1.45,.55h-.08c-.23-.06-.31-.24-.26-.55s.2-.68,.43-1.11c.23-.42,.54-.89,.94-1.4,.4-.51,.82-1.02,1.28-1.53,.85-1.13,1.84-2.52,2.98-4.17,1.13-1.64,2.3-3.36,3.49-5.14s2.32-3.58,3.4-5.4c1.08-1.81,2.03-3.44,2.85-4.89,.82-1.45,1.43-2.62,1.83-3.53,.4-.91,.51-1.39,.34-1.45l-2.21,1.11c-.68,.34-1.26,.6-1.74,.77-.48,.17-.91,.25-1.28,.25s-.72-.11-1.06-.34-.74-.57-1.19-1.02c-.46-.4-.68-1.22-.68-2.47s.31-2.27,.94-3.23c.62-.96,1.18-1.29,1.66-.98,.48,.31,.41,1.06-.21,2.25-.45,.74-.69,1.35-.72,1.83-.03,.48,.3,1.06,.98,1.74,.06,.06,2.01-1.22,5.87-3.83l2.47-1.36,4.34-2.21Zm.25,18.79c-.23-.11-.51-.24-.85-.38-.34-.14-.65-.21-.94-.21-.4,0-.87,.04-1.4,.13-.54,.08-1.06,.21-1.57,.38-.51,.17-.98,.34-1.4,.51-.43,.17-.72,.34-.89,.51-.11,.11-.34,.17-.68,.17s-.68-.06-1.02-.17c-.23,.06-.51,.18-.85,.38-.34,.2-.65,.41-.94,.64-.11,.17-.21,.3-.3,.38s-.18,.24-.3,.47l-3.06,3.15c-.91,.85-1.7,1.8-2.38,2.85-.68,1.05-1.02,1.8-1.02,2.25h1.28c.85,0,1.47,.13,1.87,.38,.4,.25,.91,.75,1.53,1.49h-.08l.85,.85c.23,0,.4-.06,.51-.17l.68-.34c.91-.68,1.66-1.35,2.25-2,.6-.65,.95-1.26,1.06-1.83,.17-1.47,.41-2.2,.72-2.17,.31,.03,.67,.44,1.06,1.23,.11,.17,.47,.11,1.06-.17,.59-.28,1.29-.74,2.08-1.36,.68-.51,1.23-.92,1.66-1.23,.43-.31,.75-.61,.98-.89,.23-.28,.38-.57,.47-.85,.08-.28,.13-.65,.13-1.11,.11-1.47-.06-2.44-.51-2.89Zm-7.31,15.82c0-1.13-.08-1.7-.25-1.7-.11,.28-.44,.57-.98,.85-.54,.28-1.01,.54-1.4,.77-.62,.28-1.02,.5-1.19,.64-.17,.14-.2,.33-.08,.55,.23,1.25,.43,1.98,.6,2.21s.48,.25,.94,.08c.96-.28,1.6-.65,1.91-1.11,.31-.45,.47-1.22,.47-2.3Zm5.19-44.22c.28,0,.62,.08,1.02,.25,.4,.17,.79,.4,1.19,.68,.51,.4,.89,.71,1.15,.94,.25,.23,.41,.42,.47,.59s0,.35-.17,.55c-.17,.2-.45,.47-.85,.81-.29,.11-.71,.24-1.28,.38-.57,.14-1.16,.21-1.79,.21-.4,0-.91,.11-1.53,.34-.62,.23-1.13,.4-1.53,.51-1.42,.79-2.33,1.08-2.72,.85-.4-.23-.2-.91,.6-2.04,.11-.28,.24-.57,.38-.85,.14-.28,.1-.42-.13-.42-1.02,0-1.73-.09-2.13-.26-.4-.17-.51-.38-.34-.64,.17-.25,.59-.51,1.28-.77,.68-.25,1.56-.44,2.64-.55l2.89-.42,.85-.17Zm6.8,11.4c-.06,0-.1,.01-.13,.04-.03,.03-.1,.04-.21,.04s-.31,.03-.6,.08c-.62,.11-1.33,.3-2.13,.55s-1.56,.54-2.3,.85c-.74,.31-1.39,.59-1.96,.85-.57,.26-.91,.44-1.02,.55-.23,.23-.38,.55-.47,.98-.08,.42-.1,.84-.04,1.23,0,.45-.14,1.21-.42,2.25-.29,1.05-.68,2.08-1.19,3.1l-.25,1.02-.85,1.7c.57-.51,1.64-1.73,3.23-3.66,.28-.4,.95-1.13,2-2.21,1.05-1.08,2.22-2.38,3.53-3.91,.74-.79,1.4-1.52,2-2.17,.6-.65,.89-1.09,.89-1.32h-.08Zm-4.42,9.52c0-.57-1.08,.17-3.23,2.21l-2.21,2.21c.06,.11,.3,.04,.72-.21,.43-.25,.92-.57,1.49-.94,.57-.37,1.12-.78,1.66-1.23,.54-.45,.95-.82,1.23-1.11,.23-.23,.34-.54,.34-.93Zm.68,19.3c0-.34-.06-.75-.17-1.23-.11-.48-.31-.86-.6-1.15v-.77l-2.21,1.53c-.91,.62-1.59,1.25-2.04,1.87-.45,.62-.57,1.33-.34,2.13,.45-.79,.79-1.16,1.02-1.11,.23,.06,.34,.77,.34,2.13,0,.23,.1,.3,.3,.21,.2-.08,.78-.5,1.74-1.23,1.3-.62,1.96-1.42,1.96-2.38Zm11.4-3.74c0-1.25-.11-2.24-.34-2.98-.17-.45-.79-.68-1.87-.68-3,.17-4.71,.79-5.1,1.87v-.08c-.11,.74-.11,1.54,0,2.42,.11,.88,.31,1.32,.59,1.32,.85,0,1.26,.48,1.23,1.45-.03,.96-.5,1.87-1.4,2.72-.11,.06-.17,.18-.17,.38v2.34c0,.34,.03,.76,.08,1.28v.51c0,.11,.01,.23,.04,.34,.03,.11,.04,.23,.04,.34,.06,1.25,.08,2.3,.08,3.15s.03,1.36,.08,1.53h.94c.74,0,1.49-.64,2.25-1.91,.76-1.28,1.49-3.1,2.17-5.49,.45-1.3,.79-2.75,1.02-4.34,.23-1.59,.34-2.98,.34-4.17Z"/>
  </g>
  <g>
    <path d="M125.53,32.1c0-1.7,.45-2.55,1.36-2.55,.57,0,1.42,.31,2.55,.94,1.13,.62,2.27,1.36,3.4,2.21,1.13,.85,2.13,1.73,2.98,2.64,.85,.91,1.28,1.59,1.28,2.04,0,.57-.91,1.87-2.72,3.91-1.81,2.04-4.76,5.22-8.84,9.52v-.17c-1.59,1.25-2.47,2.16-2.64,2.72-.17,.57,.14,1.36,.93,2.38,.57,.57,1.08,1.5,1.53,2.81,.45,1.31,.68,2.41,.68,3.32-.34,2.72,.79,3.52,3.4,2.38,2.61-.91,4.02-1.73,4.25-2.47,.23-.74-.91-.99-3.4-.76-1.25,.23-1.93,.03-2.04-.6-.11-.62,.45-1.16,1.7-1.62h-.17c.57-.11,1.42-.2,2.55-.26,1.13-.06,2.49-.14,4.08-.25l4.42-.34h4.08c1.02,0,1.79,.06,2.3,.17,.51,.11,.85,.34,1.02,.68,.17,.34,.31,.74,.43,1.19,.11,.68,.03,1.39-.25,2.13-.29,.74-.71,1.22-1.28,1.45-.79,.68-1.9,1.45-3.32,2.3-1.42,.85-2.98,1.7-4.68,2.55-1.7,.85-3.46,1.67-5.27,2.47-1.82,.79-3.4,1.47-4.76,2.04-1.13,.34-2.01,.68-2.64,1.02-.62,.34-1.11,.71-1.45,1.11-.34,.4-.54,.94-.6,1.62-.06,.68-.08,1.59-.08,2.72,0,1.36,.14,2.47,.42,3.32,.28,.85,.85,1.53,1.7,2.04,.85,.51,2.01,.91,3.49,1.19,1.47,.28,3.34,.6,5.61,.94,1.81,.23,3.88,.6,6.21,1.11,2.32,.51,4.51,1.05,6.55,1.62,.91,0,2.01,.23,3.32,.68,1.3,.46,2.58,.85,3.83,1.19,1.25,.23,2.47,.54,3.66,.94,1.19,.4,2.41,.71,3.66,.94,1.93,.57,4,1.28,6.21,2.13s3.83,1.62,4.85,2.3c1.25,1.25,2.01,2.1,2.3,2.55,.28,.45,.03,1.13-.77,2.04-.45,.91-1.02,1.42-1.7,1.53-.68,.11-1.99,.06-3.91-.17-1.93-.11-3.54-.14-4.85-.08-1.3,.06-2.47,.37-3.49,.94-.57,.34-1.73,.88-3.49,1.62-1.76,.74-3.43,1.28-5.02,1.62-3.63,1.25-5.87,2.16-6.72,2.72-.85,.57-.99,1.42-.43,2.55,.45,.34,.74,1.87,.85,4.59,.11,2.72,.17,6.07,.17,10.04,0,2.38-.03,4.96-.08,7.74-.06,2.78-.14,5.53-.25,8.25-.11,2.72-.23,5.36-.34,7.91-.11,2.55-.23,4.79-.34,6.72-.91,9.41-2.72,14.12-5.44,14.12-2.5,0-5.39-3.57-8.67-10.71-.91-2.49-1.7-3.74-2.38-3.74-.34,.11-.74,.28-1.19,.51-.34,.23-.68,.42-1.02,.59-.34,.17-.68,.37-1.02,.6-.34,.23-.74,.42-1.19,.59-.45,.17-.79,.37-1.02,.6-2.72,1.93-4.82,2.72-6.29,2.38-.45-.23-.85-.51-1.19-.85s-.51-.74-.51-1.19c0-.68-.91-1.76-2.72-3.23v.17l-2.04-1.87,4.25-7.31c.11-.34,.34-.88,.68-1.62,.34-.74,.62-1.33,.85-1.79,.45-1.25,.96-2.69,1.53-4.34,.57-1.64,.85-2.75,.85-3.32,0-1.59-.28-2.61-.85-3.06-.57-.45-2.27-1.02-5.1-1.7h.17c-1.25-.34-2.55-.54-3.91-.6-1.36-.06-2.16,.03-2.38,.25-.23,.23-.28,.94-.17,2.13,.11,1.19,.4,2.69,.85,4.51,.45,1.25,.79,2.64,1.02,4.17,.23,1.53,.34,2.69,.34,3.49,0,1.13-.2,2.61-.6,4.42-.4,1.82-.88,3.63-1.45,5.44-.57,1.82-1.16,3.49-1.79,5.02-.62,1.53-1.11,2.64-1.45,3.32-.68,.45-1.3,.57-1.87,.34-.57-.23-1.7-1.02-3.4-2.38-1.13-.91-1.96-1.67-2.47-2.3-.51-.62-.76-1.39-.76-2.3,0-.68,.23-1.7,.68-3.06,.45-1.36,.96-2.95,1.53-4.76,.57-1.47,.99-3.97,1.28-7.48,.28-3.51,.42-7.03,.42-10.54,0-2.95-.08-5.5-.25-7.65-.17-2.15-.48-3.57-.94-4.25-.91-1.59-1.93-2.3-3.06-2.13-1.13,.17-3.29,1.33-6.46,3.49l-5.78,3.91-7.65,5.1c-4.08,2.95-7.51,5.1-10.29,6.46-2.78,1.36-4.17,1.76-4.17,1.19,0-.23,.79-1.08,2.38-2.55,1.59-1.47,3.46-3.06,5.61-4.76,4.08-3.4,7.65-6.46,10.72-9.18,3.06-2.72,5.72-5.19,7.99-7.4,2.27-2.21,4.22-4.25,5.87-6.12,1.64-1.87,3.15-3.77,4.51-5.7,.57-.68,1.08-1.42,1.53-2.21,.45-.79,.96-1.64,1.53-2.55,1.25-1.81,2.44-3.57,3.57-5.27,1.13-1.7,2.15-3.17,3.06-4.42,1.25-1.7,2.32-3.26,3.23-4.68,.91-1.42,1.36-2.3,1.36-2.64,.11-.34-.08-.6-.59-.77-.51-.17-1.11-.25-1.79-.25s-1.45,.14-2.3,.42c-.85,.29-1.56,.65-2.13,1.11-.57,.68-1.59,1.5-3.06,2.47-1.47,.96-2.89,1.73-4.25,2.3l-3.91,1.87c-1.59,.68-3.35,1.5-5.27,2.47-1.93,.96-3.8,1.9-5.61,2.81-2.95,1.47-5.73,2.78-8.33,3.91-2.61,1.13-4.2,1.7-4.76,1.7-.91,0-2.21-.25-3.91-.77-1.7-.51-3.4-1.13-5.1-1.87-1.7-.74-3.18-1.47-4.42-2.21-1.25-.74-1.87-1.28-1.87-1.62,0-.91,1.47-1.36,4.42-1.36,1.25,0,2.89-.17,4.93-.51s3.85-.79,5.44-1.36l1.87-.68c1.13-.45,2.1-.85,2.89-1.19,.79-.34,1.3-.51,1.53-.51s.96-.23,2.21-.68c1.25-.45,2.86-1.08,4.85-1.87,1.98-.79,4.25-1.73,6.8-2.81,2.55-1.08,5.19-2.24,7.91-3.49l19.9-9.01-.51-5.1c-.23-3.06-.57-4.82-1.02-5.27-.45-.45-1.64-.23-3.57,.68-1.82,.91-3.69,1.84-5.61,2.81-1.93,.96-3.69,1.84-5.27,2.64-1.59,.79-2.89,1.45-3.91,1.96-1.02,.51-1.53,.65-1.53,.42s.62-1.02,1.87-2.38c1.25-1.36,2.78-2.78,4.59-4.25,1.25-1.36,2.64-2.81,4.17-4.34l3.83-3.83,2.21-2.38c2.72-3.17,4.9-5.75,6.55-7.74,1.64-1.98,2.95-3.63,3.91-4.93,.96-1.3,1.59-2.35,1.87-3.15,.28-.79,.42-1.64,.42-2.55Zm-15.65,79.77c-.34-.91-.82-1.73-1.45-2.47-.62-.74-1.11-1.11-1.45-1.11-.57,0-1.33,.34-2.3,1.02-.96,.68-2.01,1.48-3.15,2.38l-4.59,4.08,3.91,3.4c1.25,1.02,2.18,2.1,2.81,3.23,.62,1.13,1.05,2.38,1.28,3.74l.85,5.1,9.7-.85c1.47-.11,2.75-.2,3.83-.25,1.08-.06,2.07-.08,2.98-.08,2.27,0,3.97,.23,5.1,.68,1.13,.45,1.98,1.08,2.55,1.87,.45,.91,.6,1.84,.43,2.81-.17,.96-.65,2.35-1.45,4.17-.68,1.25-1.22,2.27-1.62,3.06-.4,.79-.62,1.45-.68,1.96-.06,.51,.03,.94,.25,1.28,.23,.34,.62,.74,1.19,1.19,1.25,1.02,3,1.08,5.27,.17l3.23-1.19-.34-16.16c-.11-2.27-.17-4.36-.17-6.29s-.06-3.63-.17-5.1c-.11-1.7-.17-3.29-.17-4.76-.57,0-1.42,.31-2.55,.93-1.13,.62-2.3,1.36-3.49,2.21-1.19,.85-2.38,1.79-3.57,2.81-1.19,1.02-2.13,1.87-2.81,2.55-.57,1.13-1.19,2.01-1.87,2.64-.68,.62-1.13,.94-1.36,.94-.57,0-1.39-.68-2.47-2.04-1.08-1.36-1.9-2.72-2.47-4.08-.23-.91-.62-1.7-1.19-2.38-.57-.68-1.08-1.13-1.53-1.36-.79-.57-1.65-1.93-2.55-4.08Zm6.63-9.52c.23-3.51,.03-5.75-.6-6.72-.62-.96-1.56-.14-2.81,2.47-.34,1.47-.74,2.21-1.19,2.21-1.25,0-1.96,.82-2.13,2.47-.17,1.65,.37,3.04,1.62,4.17,1.93,1.93,3.26,2.55,4,1.87,.74-.68,1.11-2.83,1.11-6.46Zm10.37,46.43c0-.11-.03-.2-.08-.26-.06-.06-.08-.14-.08-.25-.34-.91-.74-1.28-1.19-1.11-.45,.17-1.25,.71-2.38,1.62l-.85,.85c-2.04,1.93-2.84,3.18-2.38,3.74,.45,.57,1.87,.17,4.25-1.19,1.02-.57,1.79-1.16,2.3-1.79,.51-.62,.65-1.22,.42-1.79v.17Zm22.28-51.87c-1.02-.34-2.92-1.08-5.7-2.21-2.78-1.13-5.7-2.32-8.76-3.57l-10.54-4.59,.68,10.54,1.19,8.67,.51,4.59c.34,1.59,.65,2.44,.94,2.55,.28,.11,.99-.4,2.13-1.53v.17c.57-.45,1.7-.85,3.4-1.19,1.7-.34,3.51-.62,5.44-.85,3.06-.34,5.19-.71,6.38-1.11,1.19-.4,1.9-.99,2.13-1.79,.45-1.13,.85-1.7,1.19-1.7,.23,0,.51-.14,.85-.42,.34-.28,.51-.6,.51-.94s.14-.79,.42-1.36c.28-.57,.65-.96,1.11-1.19,.91-1.25,1.3-2.04,1.19-2.38-.11-.34-1.13-.91-3.06-1.7Zm-12.59,56.47c0-.68-.17-1.25-.51-1.7-.34-.45-.68-.68-1.02-.68-.91,0-1.36,.79-1.36,2.38,0,.57,.14,1.11,.42,1.62,.28,.51,.6,.77,.94,.77s.68-.25,1.02-.77c.34-.51,.51-1.05,.51-1.62Z"/>
    <path d="M64.98,189.31c0-.45,.48-.48,1.45-.08,.96,.4,2.13,1.02,3.49,1.87,1.36,.85,2.83,1.9,4.42,3.15,1.59,1.25,3,2.44,4.25,3.57,3.17,3.52,3.68,7.14,1.53,10.88-.68,1.25-1.47,2.58-2.38,4-.91,1.42-1.82,2.81-2.72,4.17-.91,1.36-1.79,2.64-2.64,3.83s-1.56,2.13-2.13,2.81c-.57,.57-1.25,1.48-2.04,2.72-.79,1.25-1.65,2.55-2.55,3.91l-.85,1.19c-.68,1.36-1.22,2.52-1.62,3.49-.4,.96-.59,2.01-.59,3.15,0,1.25,.25,2.67,.76,4.25,.51,1.59,1.39,3.69,2.64,6.29,.57,1.25,1.13,2.67,1.7,4.25,.57,1.59,1.13,3.18,1.7,4.76,.57,1.59,1.08,3.15,1.53,4.68,.45,1.53,.79,2.86,1.02,4l1.02,5.44,3.91-7.31c.34-.79,.82-1.87,1.45-3.23,.62-1.36,1.3-2.86,2.04-4.51,.74-1.64,1.5-3.34,2.3-5.1,.79-1.76,1.53-3.43,2.21-5.02l3.57-7.65c.68-1.25,1.25-2.3,1.7-3.15,.45-.85,.62-1.28,.51-1.28,.23-.11,.31,.25,.25,1.11-.06,.85-.17,1.93-.34,3.23-.17,1.3-.42,2.64-.77,4-.34,1.36-.68,2.5-1.02,3.4-.34,.91-.62,2.13-.85,3.66-.23,1.53-.34,3.15-.34,4.85,0,1.93-.42,4.23-1.28,6.89-.85,2.67-2.24,6.27-4.17,10.8-.68,1.7-1.39,3.35-2.13,4.93-.74,1.59-1.42,3.04-2.04,4.34-.62,1.3-1.16,2.38-1.62,3.23-.46,.85-.79,1.39-1.02,1.62-.57,.45-1.05,1.19-1.45,2.21-.4,1.02-.65,1.87-.76,2.55-1.36,10.09-3.8,13.83-7.31,11.23-.68-.68-1.28-1.5-1.79-2.47-.51-.96-.94-1.98-1.28-3.06-.34-1.08-.54-2.13-.6-3.15-.06-1.02,.08-1.93,.43-2.72,.45-.91,.79-3.09,1.02-6.55,.23-3.46,.34-7.28,.34-11.48,0-2.49-.03-4.96-.08-7.4-.06-2.44-.17-4.73-.34-6.89-.17-2.15-.37-4.05-.59-5.7-.23-1.64-.51-2.86-.85-3.66-.45-1.13-.88-2.69-1.28-4.68-.4-1.98-.77-3.6-1.11-4.85-.23-1.02-.28-2.01-.17-2.98,.11-.96,.4-2.07,.85-3.32,.45-1.25,1.08-2.72,1.87-4.42,.79-1.7,1.87-3.85,3.23-6.46,1.93-3.51,3.57-6.8,4.93-9.87s2.21-5.44,2.55-7.14c.11-1.13,.17-2.1,.17-2.89s-.14-1.56-.43-2.3c-.28-.74-.74-1.53-1.36-2.38-.62-.85-1.45-1.9-2.47-3.15h.17c-1.25-1.47-2.24-2.72-2.98-3.74-.74-1.02-1.11-1.64-1.11-1.87Zm65.82-14.97c.34-.23,1.02-.37,2.04-.43,1.02-.06,1.98-.03,2.89,.09,2.72,.23,4.73,1.28,6.04,3.15,1.3,1.87,2.18,4.96,2.64,9.27,.23,3.18,.59,5.27,1.11,6.29,.51,1.02,1.56,1.93,3.15,2.72,2.72,1.25,4.08,2.38,4.08,3.4,0,.34-.34,.82-1.02,1.45-.68,.62-1.48,1.22-2.38,1.79-2.16,1.36-3.77,3.15-4.85,5.36-1.08,2.21-1.9,5.47-2.47,9.78-.46,3.29-.82,5.84-1.11,7.65-.29,1.81-.57,3.15-.85,4-.28,.85-.6,1.39-.94,1.62-.34,.23-.85,.34-1.53,.34-1.59,0-2.38-.23-2.38-.68,0-1.81-.54-2.32-1.62-1.53-1.08,.79-2.58,2.67-4.51,5.61-.91,1.59-1.93,3.15-3.06,4.68-1.13,1.53-1.99,2.64-2.55,3.32,0,.11-.48,.79-1.45,2.04-.96,1.25-1.79,2.38-2.47,3.4l-3.23,4.42c-1.93,3.06-3.09,5.19-3.49,6.38-.4,1.19-.31,2.01,.25,2.47,1.93,.79,4.53,.11,7.82-2.04,.45-.34,1.67-.94,3.66-1.79,1.98-.85,4.17-1.56,6.55-2.13,4.99-1.59,8.96-2.38,11.91-2.38,5.33,0,7.99,1.87,7.99,5.61,0,1.7-.74,3.8-2.21,6.29-.57,1.13-1.5,2.52-2.81,4.17-1.3,1.64-2.69,3.21-4.17,4.68-1.47,1.48-2.83,2.72-4.08,3.74-1.25,1.02-2.1,1.53-2.55,1.53-1.25,0-2.55,.96-3.91,2.89-.46,.79-.96,1.45-1.53,1.96-.57,.51-.96,.77-1.19,.77-.57,0-.74-.51-.51-1.53,.23-1.02,.74-1.87,1.53-2.55v.17c.68-.57,1.59-1.59,2.72-3.06,1.13-1.47,2.27-3.12,3.4-4.93,1.13-1.81,2.15-3.54,3.06-5.19,.91-1.64,1.47-2.92,1.7-3.83l.85-3.91-6.97,.85c-7.48,.79-10.83,2.5-10.03,5.1,.23,.34,.14,1.87-.25,4.59-.4,2.72-.94,5.78-1.62,9.18-.68,3.29-1.22,6.12-1.62,8.5-.4,2.38-.6,4.37-.6,5.95,0,2.04,.31,3.6,.94,4.68,.62,1.08,1.56,1.9,2.81,2.47,2.04,.68,5.21,1.02,9.52,1.02,2.04,0,4.08-.08,6.12-.25s3.74-.42,5.1-.77c2.72-.79,5.5-1.84,8.33-3.15,2.83-1.3,5.55-2.72,8.16-4.25,2.61-1.53,5.04-3.12,7.31-4.76,2.27-1.64,4.14-3.26,5.61-4.85l4.25-4.59-.34,6.97c-.11,3.06-.4,5.33-.85,6.8-.45,1.47-1.36,3.01-2.72,4.59-2.95,3.29-6.92,5.87-11.91,7.74-4.99,1.87-11.4,3.09-19.22,3.66-5.22,.23-10.04-.14-14.46-1.11-4.42-.96-8.11-2.58-11.05-4.85-.68-.57-1.25-1.11-1.7-1.62-.45-.51-.79-1.11-1.02-1.79-.23-.68-.37-1.5-.42-2.47-.06-.96-.03-2.24,.08-3.83,0-1.93,.28-4.53,.85-7.82,.57-3.29,1.25-6.35,2.04-9.18,1.02-2.49,1.81-4.82,2.38-6.97,.34-1.13,.57-2.15,.68-3.06-.23-.11-1.08-.28-2.55-.51-1.47-.23-2.95-.4-4.42-.51-2.38-.11-4.2,0-5.44,.34-1.25,.34-2.72,1.47-4.42,3.4-1.59,1.82-3.23,3.57-4.93,5.27-1.7,1.7-3.29,3.21-4.76,4.51-1.47,1.31-2.75,2.35-3.83,3.15-1.08,.79-1.84,1.19-2.3,1.19-.34,0-.96,.17-1.87,.51-.91,.34-1.76,.74-2.55,1.19-1.7,1.02-2.24,.96-1.62-.17,.62-1.13,2.41-3,5.36-5.61,1.13-1.13,2.38-2.41,3.74-3.83,1.36-1.42,2.69-2.83,4-4.25,1.3-1.42,2.52-2.78,3.66-4.08,1.13-1.3,2.1-2.47,2.89-3.49,2.04-2.61,4.17-5.5,6.38-8.67,2.21-3.17,4.25-6.21,6.12-9.1,1.87-2.89,3.43-5.41,4.68-7.57,1.25-2.15,1.87-3.51,1.87-4.08-.57,0-1.73,.28-3.49,.85-1.76,.57-3.54,1.3-5.36,2.21-1.47,.57-2.98,1.13-4.51,1.7-1.53,.57-2.75,1.08-3.66,1.53l-1.36,.68c-1.36-.11-1.39-1.16-.08-3.15,1.3-1.98,3.54-4.39,6.72-7.23l7.99-7.14-1.02-4.93c-.91-2.83-1.9-4.62-2.98-5.36-1.08-.74-2.41-.42-4,.94-.34,.46-1.62,.79-3.83,1.02-2.21,.23-4.57,.34-7.06,.34-1.47,0-2.89-.06-4.25-.17-1.36-.11-2.44-.28-3.23-.51-.57-.23-1.11-.57-1.62-1.02-.51-.45-.77-.85-.77-1.19,0-.79,.4-1.02,1.19-.68,.57,.23,1.84,.17,3.83-.17,1.98-.34,4.22-.79,6.72-1.36,2.49-.57,4.93-1.16,7.31-1.79,2.38-.62,4.25-1.22,5.61-1.79l3.74-2.21-.51-8.16c-.23-2.15-.57-4.22-1.02-6.21-.45-1.98-.96-3.43-1.53-4.34-.91-1.25-.96-1.67-.17-1.28,.79,.4,1.93,1.39,3.4,2.98l2.21,1.87v-.17c.91,.79,1.47,1.19,1.7,1.19s.85-.79,1.87-2.38c1.02-1.59,1.98-3.46,2.89-5.61l1.36-2.38c.91-1.47,1.64-2.72,2.21-3.74,.57-1.02,1.13-1.64,1.7-1.87Zm0,48.47c-1.36-1.25-2.81-1.9-4.34-1.96-1.53-.06-2.58,.37-3.15,1.28-.23,.45-.91,1.02-2.04,1.7-1.13,.68-2.33,1.42-3.57,2.21-.91,.57-1.99,1.39-3.23,2.47-1.25,1.08-2.21,1.9-2.89,2.47l-2.38,2.89,.34,.34,3.74-2.21c.57-.23,1.3-.59,2.21-1.11,.91-.51,1.7-.99,2.38-1.45,.45-.23,.79-.48,1.02-.77,.23-.28,.57-.54,1.02-.77,1.02-.91,2.24-1.59,3.66-2.04,1.42-.45,2.81-.68,4.17-.68,2.49,0,3.88-.11,4.17-.34,.28-.23-.08-.91-1.11-2.04Zm2.89-45.41c-1.7,0-2.95,.28-3.74,.85-.79,.57-1.64,1.81-2.55,3.74-.79,1.93-1.5,3.91-2.13,5.95-.62,2.04-1.11,3.91-1.45,5.61-.34,1.7-.51,3.15-.51,4.34s.17,1.96,.51,2.3v-.17c.34,.34,1.19,.4,2.55,.17,1.36-.23,3-.79,4.93-1.7l6.12-2.72v-18.37h-3.74Zm.34,30.1c1.02-1.59,1.11-2.35,.25-2.3-.85,.06-2.81,.82-5.87,2.3-1.82,.91-3.01,1.73-3.57,2.47-.57,.74-.85,1.96-.85,3.66v4.08l4.42-4.42v.17c1.36-1.02,2.55-2.13,3.57-3.32s1.7-2.07,2.04-2.64Zm2.21,30.44c0-.57,.88-.68,2.64-.34,1.76,.34,4.02,.96,6.8,1.87,2.78,.91,5.84,2.07,9.18,3.49,3.34,1.42,6.57,2.86,9.69,4.34,3.12,1.47,5.95,2.95,8.5,4.42,2.55,1.47,4.39,2.78,5.53,3.91,1.7,1.59,2.55,3.06,2.55,4.42,0,.91-.6,1.59-1.79,2.04-1.19,.45-2.75,.4-4.68-.17-2.95-.57-5.67-.57-8.16,0-1.7,.34-2.64,.31-2.81-.08-.17-.4,.2-1.67,1.11-3.83,.23-.91-.28-1.87-1.53-2.89-1.25-1.02-3.57-2.49-6.97-4.42l-1.19-.68c-2.04-1.25-4.14-2.41-6.29-3.49-2.16-1.08-3.52-1.67-4.08-1.79-.68-.11-1.5-.48-2.47-1.11-.96-.62-1.9-1.3-2.81-2.04-.91-.74-1.67-1.45-2.3-2.13-.62-.68-.94-1.19-.94-1.53Z"/>
  </g>
</svg>