<?xml version="1.0" encoding="UTF-8"?>
<svg id="Layer_1" data-name="Layer 1" xmlns="http://www.w3.org/2000/svg" viewBox="0 0 1089.65 323.12">
  <path d="M134.68,84.94c0-1.94,.52-2.91,1.55-2.91,.65,0,1.62,.36,2.91,1.07,1.29,.71,2.59,1.55,3.88,2.53,1.29,.97,2.43,1.98,3.4,3.01,.97,1.04,1.46,1.82,1.46,2.33,0,.65-1.04,2.14-3.11,4.47-2.07,2.33-5.44,5.96-10.1,10.88v-.19c-1.81,1.43-2.82,2.46-3.01,3.11-.2,.65,.16,1.55,1.07,2.72,.65,.65,1.23,1.72,1.75,3.2,.52,1.49,.78,2.75,.78,3.79-.39,3.11,.9,4.02,3.88,2.72,2.98-1.04,4.6-1.97,4.86-2.82,.26-.84-1.04-1.13-3.88-.87-1.43,.26-2.2,.03-2.33-.68-.13-.71,.52-1.33,1.94-1.84h-.19c.65-.13,1.62-.23,2.91-.29,1.29-.06,2.85-.16,4.66-.29l5.05-.39h4.66c1.17,0,2.04,.07,2.62,.19,.58,.13,.97,.39,1.16,.78,.2,.39,.36,.84,.49,1.36,.13,.78,.03,1.59-.29,2.43-.33,.84-.81,1.39-1.46,1.65-.91,.78-2.17,1.65-3.79,2.62-1.62,.97-3.4,1.94-5.34,2.91-1.94,.97-3.95,1.91-6.02,2.82-2.07,.91-3.88,1.68-5.44,2.33-1.3,.39-2.3,.78-3.01,1.17-.71,.39-1.26,.81-1.65,1.26-.39,.46-.62,1.07-.68,1.84-.07,.78-.1,1.82-.1,3.11,0,1.55,.16,2.82,.49,3.79,.32,.97,.97,1.75,1.94,2.33,.97,.58,2.3,1.04,3.98,1.36,1.68,.32,3.82,.68,6.41,1.07,2.07,.26,4.43,.68,7.09,1.26,2.65,.58,5.15,1.2,7.48,1.85,1.04,0,2.3,.26,3.79,.78,1.49,.52,2.94,.97,4.37,1.36,1.42,.26,2.82,.62,4.18,1.07,1.36,.46,2.75,.81,4.18,1.07,2.2,.65,4.57,1.46,7.09,2.43s4.37,1.85,5.54,2.62c1.42,1.43,2.3,2.4,2.62,2.91,.32,.52,.03,1.3-.87,2.33-.52,1.04-1.17,1.62-1.94,1.75-.78,.13-2.27,.07-4.47-.19-2.2-.13-4.05-.16-5.54-.1-1.49,.07-2.82,.42-3.98,1.07-.65,.39-1.98,1-3.98,1.84-2.01,.84-3.92,1.46-5.73,1.85-4.15,1.43-6.7,2.46-7.67,3.11-.97,.65-1.14,1.62-.49,2.91,.52,.39,.84,2.14,.97,5.25,.13,3.11,.19,6.93,.19,11.46,0,2.72-.03,5.67-.1,8.84-.07,3.18-.16,6.32-.29,9.42-.13,3.11-.26,6.12-.39,9.03-.13,2.91-.26,5.47-.39,7.67-1.04,10.75-3.11,16.12-6.22,16.12-2.85,0-6.15-4.08-9.91-12.24-1.04-2.85-1.94-4.27-2.72-4.27-.39,.13-.84,.32-1.36,.58-.39,.26-.78,.49-1.17,.68-.39,.19-.78,.42-1.16,.68-.39,.26-.84,.49-1.36,.68-.52,.19-.91,.42-1.17,.68-3.11,2.2-5.51,3.11-7.19,2.72-.52-.26-.97-.58-1.36-.97-.39-.39-.58-.85-.58-1.36,0-.78-1.04-2.01-3.11-3.69v.19l-2.33-2.14,4.86-8.35c.13-.39,.39-1,.78-1.84,.39-.84,.71-1.52,.97-2.04,.52-1.42,1.1-3.08,1.75-4.95,.65-1.88,.97-3.14,.97-3.79,0-1.81-.32-2.98-.97-3.5-.65-.52-2.59-1.17-5.83-1.94h.2c-1.43-.39-2.91-.61-4.47-.68-1.55-.06-2.46,.03-2.72,.29-.26,.26-.32,1.07-.19,2.43,.13,1.36,.45,3.08,.97,5.15,.52,1.43,.9,3.01,1.17,4.76,.26,1.75,.39,3.08,.39,3.98,0,1.3-.23,2.98-.68,5.05-.46,2.07-1,4.14-1.65,6.22-.65,2.07-1.33,3.98-2.04,5.73-.71,1.75-1.26,3.01-1.65,3.79-.78,.52-1.49,.65-2.14,.39-.65-.26-1.94-1.16-3.88-2.72-1.3-1.04-2.23-1.91-2.82-2.62-.58-.71-.87-1.59-.87-2.62,0-.78,.26-1.94,.78-3.5,.52-1.55,1.1-3.37,1.75-5.44,.65-1.68,1.13-4.53,1.46-8.55,.32-4.01,.49-8.03,.49-12.04,0-3.37-.1-6.28-.29-8.74-.19-2.46-.55-4.08-1.07-4.86-1.04-1.81-2.2-2.62-3.5-2.43-1.3,.19-3.76,1.52-7.38,3.98l-6.6,4.47-8.74,5.83c-4.66,3.37-8.58,5.83-11.75,7.38-3.18,1.55-4.76,2.01-4.76,1.36,0-.26,.9-1.23,2.72-2.92,1.81-1.68,3.95-3.5,6.41-5.44,4.66-3.88,8.74-7.38,12.24-10.49,3.5-3.11,6.54-5.93,9.13-8.45,2.59-2.53,4.82-4.86,6.7-6.99,1.87-2.14,3.59-4.3,5.15-6.51,.65-.78,1.23-1.62,1.75-2.53,.52-.9,1.1-1.87,1.75-2.91,1.42-2.07,2.78-4.08,4.08-6.02,1.29-1.94,2.46-3.62,3.5-5.05,1.42-1.94,2.65-3.72,3.69-5.34,1.04-1.62,1.55-2.62,1.55-3.01,.13-.39-.1-.68-.68-.87-.58-.19-1.26-.29-2.04-.29s-1.65,.16-2.62,.49c-.97,.33-1.78,.75-2.43,1.26-.65,.78-1.81,1.72-3.5,2.82-1.68,1.1-3.3,1.98-4.86,2.62l-4.47,2.14c-1.81,.78-3.82,1.72-6.02,2.82-2.2,1.1-4.34,2.17-6.41,3.21-3.37,1.68-6.54,3.17-9.52,4.47-2.98,1.3-4.79,1.94-5.44,1.94-1.04,0-2.53-.29-4.47-.87-1.94-.58-3.88-1.29-5.83-2.14-1.94-.84-3.63-1.68-5.05-2.53-1.43-.84-2.14-1.46-2.14-1.84,0-1.04,1.68-1.55,5.05-1.55,1.42,0,3.3-.2,5.63-.58s4.4-.9,6.22-1.55l2.14-.78c1.29-.52,2.39-.97,3.3-1.36,.9-.39,1.49-.58,1.75-.58s1.1-.26,2.53-.78c1.42-.52,3.27-1.23,5.54-2.14,2.26-.9,4.86-1.97,7.77-3.2,2.91-1.23,5.93-2.56,9.03-3.98l22.73-10.3-.58-5.83c-.26-3.5-.65-5.5-1.17-6.02-.52-.52-1.88-.26-4.08,.78-2.07,1.04-4.21,2.11-6.41,3.2-2.2,1.1-4.21,2.11-6.02,3.01-1.81,.91-3.3,1.65-4.47,2.23-1.17,.58-1.75,.75-1.75,.49s.71-1.17,2.14-2.72c1.42-1.55,3.17-3.17,5.24-4.86,1.42-1.55,3.01-3.21,4.76-4.95l4.37-4.37,2.53-2.72c3.11-3.62,5.6-6.57,7.48-8.84,1.88-2.26,3.37-4.14,4.47-5.63,1.1-1.49,1.81-2.69,2.14-3.59,.32-.9,.49-1.88,.49-2.91Zm-17.87,91.11c-.39-1.04-.94-1.97-1.65-2.82-.71-.84-1.26-1.26-1.65-1.26-.65,0-1.52,.39-2.62,1.17-1.1,.78-2.3,1.69-3.59,2.72l-5.24,4.66,4.47,3.88c1.42,1.17,2.49,2.4,3.2,3.69,.71,1.3,1.2,2.72,1.46,4.27l.97,5.83,11.07-.97c1.68-.13,3.14-.23,4.37-.29,1.23-.06,2.36-.1,3.4-.1,2.59,0,4.53,.26,5.83,.78,1.29,.52,2.26,1.23,2.91,2.14,.52,1.04,.68,2.11,.49,3.2-.2,1.1-.75,2.69-1.65,4.76-.78,1.43-1.39,2.59-1.84,3.5-.46,.91-.71,1.65-.78,2.24-.07,.58,.03,1.07,.29,1.46,.26,.39,.71,.84,1.36,1.36,1.42,1.17,3.43,1.23,6.02,.2l3.69-1.36-.39-18.46c-.13-2.59-.19-4.98-.19-7.19s-.07-4.14-.19-5.83c-.13-1.94-.19-3.75-.19-5.44-.65,0-1.62,.36-2.91,1.07-1.3,.71-2.62,1.55-3.98,2.53-1.36,.97-2.72,2.04-4.08,3.21-1.36,1.16-2.43,2.13-3.21,2.91-.65,1.3-1.36,2.3-2.14,3.01-.78,.71-1.3,1.07-1.55,1.07-.65,0-1.59-.78-2.82-2.33-1.23-1.55-2.17-3.11-2.82-4.66-.26-1.04-.71-1.94-1.36-2.72-.65-.78-1.23-1.29-1.75-1.55-.91-.65-1.88-2.2-2.91-4.66Zm7.58-10.88c.26-4.01,.03-6.57-.68-7.67-.71-1.1-1.78-.16-3.21,2.82-.39,1.68-.84,2.53-1.36,2.53-1.43,0-2.23,.94-2.43,2.82-.19,1.88,.42,3.47,1.85,4.76,2.2,2.2,3.72,2.91,4.56,2.14,.84-.78,1.26-3.24,1.26-7.38Zm11.85,53.03c0-.13-.03-.22-.1-.29-.07-.06-.1-.16-.1-.29-.39-1.04-.84-1.46-1.36-1.26-.52,.19-1.43,.81-2.72,1.84l-.97,.97c-2.33,2.2-3.24,3.63-2.72,4.27,.52,.65,2.14,.2,4.86-1.36,1.17-.65,2.04-1.33,2.62-2.04,.58-.71,.74-1.39,.49-2.04v.19Zm25.45-59.25c-1.17-.39-3.34-1.23-6.51-2.53-3.17-1.29-6.51-2.65-10-4.08l-12.04-5.24,.78,12.04,1.36,9.91,.58,5.24c.39,1.82,.74,2.79,1.07,2.91,.32,.13,1.13-.45,2.43-1.75v.19c.65-.52,1.94-.97,3.88-1.36,1.94-.39,4.01-.71,6.22-.97,3.5-.39,5.93-.81,7.28-1.26,1.36-.45,2.17-1.13,2.43-2.04,.52-1.29,.97-1.94,1.36-1.94,.26,0,.58-.16,.97-.49,.39-.32,.58-.68,.58-1.07s.16-.9,.49-1.55c.32-.65,.74-1.1,1.26-1.36,1.04-1.42,1.49-2.33,1.36-2.72-.13-.39-1.3-1.04-3.5-1.94Zm-14.38,64.49c0-.78-.19-1.42-.58-1.94s-.78-.78-1.17-.78c-1.04,0-1.55,.91-1.55,2.72,0,.65,.16,1.26,.49,1.85,.32,.58,.68,.87,1.07,.87s.78-.29,1.17-.87c.39-.58,.58-1.2,.58-1.85Z"/>
  <path d="M230.64,102.62c0-.52,.55-.55,1.65-.1,1.1,.46,2.43,1.17,3.98,2.14,1.55,.97,3.23,2.17,5.05,3.59,1.81,1.43,3.43,2.79,4.86,4.08,3.62,4.02,4.21,8.16,1.75,12.43-.78,1.43-1.68,2.95-2.72,4.57-1.04,1.62-2.07,3.21-3.11,4.76-1.04,1.55-2.04,3.01-3.01,4.37s-1.78,2.43-2.43,3.2c-.65,.65-1.43,1.69-2.33,3.11-.91,1.43-1.88,2.91-2.91,4.47l-.97,1.36c-.78,1.55-1.39,2.88-1.85,3.98-.46,1.1-.68,2.3-.68,3.59,0,1.43,.29,3.04,.87,4.86,.58,1.81,1.58,4.21,3.01,7.19,.65,1.43,1.29,3.04,1.94,4.86,.65,1.81,1.29,3.63,1.94,5.44,.65,1.81,1.23,3.59,1.75,5.34,.52,1.75,.9,3.27,1.17,4.57l1.17,6.22,4.47-8.35c.39-.91,.94-2.14,1.65-3.69,.71-1.55,1.49-3.27,2.33-5.15,.84-1.88,1.72-3.82,2.62-5.83,.9-2.01,1.75-3.92,2.53-5.73l4.08-8.74c.78-1.42,1.42-2.62,1.94-3.59,.52-.97,.71-1.46,.58-1.46,.26-.13,.36,.29,.29,1.26-.07,.97-.19,2.2-.39,3.69-.19,1.49-.49,3.01-.87,4.56-.39,1.55-.78,2.85-1.17,3.89-.39,1.04-.71,2.43-.97,4.18-.26,1.75-.39,3.59-.39,5.54,0,2.2-.49,4.83-1.46,7.87-.97,3.05-2.56,7.16-4.76,12.34-.78,1.94-1.59,3.82-2.43,5.63-.84,1.82-1.62,3.47-2.33,4.95-.71,1.49-1.33,2.72-1.84,3.69-.52,.97-.91,1.59-1.17,1.84-.65,.52-1.2,1.36-1.65,2.53-.46,1.17-.75,2.14-.87,2.92-1.55,11.53-4.34,15.8-8.35,12.82-.78-.78-1.46-1.72-2.04-2.82-.58-1.1-1.07-2.26-1.46-3.5-.39-1.23-.62-2.43-.68-3.59-.07-1.17,.1-2.2,.49-3.11,.52-1.04,.9-3.53,1.17-7.48,.26-3.95,.39-8.32,.39-13.11,0-2.85-.03-5.66-.1-8.45-.07-2.78-.19-5.41-.39-7.87-.19-2.46-.42-4.63-.68-6.51-.26-1.88-.58-3.27-.97-4.18-.52-1.29-1-3.08-1.46-5.34-.46-2.26-.87-4.11-1.26-5.54-.26-1.17-.32-2.3-.19-3.4,.13-1.1,.45-2.36,.97-3.79,.52-1.42,1.23-3.11,2.14-5.05,.9-1.94,2.14-4.4,3.69-7.38,2.2-4.01,4.08-7.77,5.63-11.27s2.53-6.22,2.91-8.16c.13-1.29,.2-2.39,.2-3.3s-.16-1.78-.49-2.62c-.32-.84-.84-1.75-1.55-2.72-.71-.97-1.65-2.17-2.82-3.59h.19c-1.43-1.68-2.56-3.11-3.4-4.27-.84-1.17-1.26-1.88-1.26-2.14Zm75.18-17.09c.39-.26,1.17-.42,2.33-.49,1.17-.06,2.26-.03,3.3,.1,3.11,.26,5.41,1.46,6.9,3.59,1.49,2.14,2.49,5.67,3.01,10.59,.26,3.63,.68,6.02,1.26,7.19,.58,1.17,1.78,2.2,3.59,3.11,3.11,1.43,4.66,2.72,4.66,3.88,0,.39-.39,.94-1.17,1.65-.78,.71-1.69,1.39-2.72,2.04-2.46,1.55-4.31,3.59-5.54,6.12-1.23,2.53-2.17,6.25-2.82,11.17-.52,3.76-.94,6.67-1.26,8.74-.33,2.07-.65,3.59-.97,4.56-.32,.97-.68,1.59-1.07,1.85-.39,.26-.97,.39-1.75,.39-1.81,0-2.72-.26-2.72-.78,0-2.07-.62-2.65-1.84-1.75-1.23,.91-2.95,3.05-5.15,6.41-1.04,1.82-2.2,3.59-3.5,5.34-1.3,1.75-2.27,3.01-2.91,3.79,0,.13-.55,.91-1.65,2.33-1.1,1.43-2.04,2.72-2.82,3.88l-3.69,5.05c-2.2,3.5-3.53,5.93-3.98,7.28-.46,1.36-.36,2.3,.29,2.82,2.2,.91,5.18,.13,8.94-2.33,.52-.39,1.91-1.07,4.18-2.04,2.26-.97,4.76-1.78,7.48-2.43,5.7-1.81,10.23-2.72,13.6-2.72,6.09,0,9.13,2.14,9.13,6.41,0,1.94-.84,4.34-2.53,7.19-.65,1.3-1.72,2.88-3.21,4.76-1.49,1.88-3.08,3.66-4.76,5.34s-3.24,3.11-4.66,4.27c-1.43,1.16-2.4,1.75-2.91,1.75-1.43,0-2.91,1.1-4.47,3.3-.52,.91-1.1,1.65-1.75,2.23-.65,.58-1.1,.87-1.36,.87-.65,0-.84-.58-.58-1.75,.26-1.17,.84-2.14,1.75-2.92v.19c.78-.64,1.81-1.81,3.11-3.5,1.29-1.68,2.59-3.56,3.89-5.63,1.29-2.07,2.46-4.05,3.5-5.93,1.04-1.88,1.68-3.33,1.94-4.37l.97-4.47-7.97,.97c-8.55,.91-12.37,2.85-11.46,5.83,.26,.39,.16,2.14-.29,5.25-.46,3.11-1.07,6.6-1.85,10.49-.78,3.76-1.39,6.99-1.84,9.71-.46,2.72-.68,4.99-.68,6.8,0,2.33,.35,4.11,1.07,5.34,.71,1.23,1.78,2.17,3.21,2.82,2.33,.78,5.96,1.17,10.88,1.17,2.33,0,4.66-.1,6.99-.29s4.27-.49,5.83-.87c3.11-.9,6.28-2.1,9.52-3.59,3.24-1.49,6.34-3.11,9.32-4.86,2.98-1.75,5.76-3.56,8.35-5.44,2.59-1.88,4.73-3.72,6.41-5.54l4.86-5.24-.39,7.96c-.13,3.5-.46,6.09-.97,7.77-.52,1.69-1.55,3.43-3.11,5.25-3.37,3.76-7.9,6.7-13.6,8.84-5.7,2.14-13.02,3.53-21.95,4.18-5.96,.26-11.46-.17-16.51-1.26-5.05-1.1-9.26-2.95-12.63-5.54-.78-.65-1.43-1.26-1.94-1.84-.52-.58-.91-1.26-1.17-2.04-.26-.78-.42-1.72-.49-2.82-.07-1.1-.03-2.56,.1-4.37,0-2.2,.32-5.18,.97-8.94,.65-3.75,1.42-7.25,2.33-10.49,1.17-2.85,2.07-5.5,2.72-7.97,.39-1.29,.65-2.46,.78-3.5-.26-.13-1.23-.32-2.91-.58-1.68-.26-3.37-.45-5.05-.58-2.72-.13-4.79,0-6.22,.39-1.43,.39-3.11,1.69-5.05,3.89-1.82,2.07-3.69,4.08-5.63,6.02-1.94,1.94-3.76,3.66-5.44,5.15-1.68,1.49-3.14,2.69-4.37,3.59-1.23,.91-2.11,1.36-2.62,1.36-.39,0-1.1,.19-2.14,.58-1.04,.39-2.01,.84-2.91,1.36-1.94,1.16-2.56,1.1-1.85-.2,.71-1.29,2.75-3.43,6.12-6.41,1.29-1.29,2.72-2.75,4.27-4.37,1.55-1.62,3.07-3.24,4.56-4.86,1.49-1.62,2.88-3.17,4.18-4.66,1.29-1.49,2.39-2.82,3.3-3.98,2.33-2.98,4.76-6.28,7.28-9.91,2.53-3.62,4.86-7.09,6.99-10.39,2.14-3.3,3.92-6.18,5.34-8.64,1.42-2.46,2.14-4.01,2.14-4.66-.65,0-1.98,.32-3.98,.97-2.01,.65-4.05,1.49-6.12,2.53-1.68,.65-3.4,1.3-5.15,1.94-1.75,.65-3.14,1.23-4.18,1.75l-1.55,.78c-1.55-.13-1.59-1.33-.1-3.59,1.49-2.26,4.05-5.02,7.67-8.26l9.13-8.16-1.17-5.63c-1.04-3.23-2.17-5.27-3.4-6.12-1.23-.84-2.75-.49-4.57,1.07-.39,.52-1.84,.91-4.37,1.17-2.53,.26-5.21,.39-8.06,.39-1.68,0-3.3-.06-4.86-.2-1.55-.13-2.79-.32-3.69-.58-.65-.26-1.26-.65-1.84-1.17-.58-.52-.87-.97-.87-1.36,0-.9,.45-1.17,1.36-.78,.65,.26,2.1,.19,4.37-.19,2.26-.39,4.82-.9,7.67-1.55,2.85-.65,5.63-1.33,8.35-2.04,2.72-.71,4.86-1.39,6.41-2.04l4.27-2.53-.58-9.32c-.26-2.46-.65-4.82-1.17-7.09-.52-2.26-1.1-3.92-1.75-4.95-1.04-1.42-1.1-1.91-.19-1.46,.9,.46,2.2,1.59,3.88,3.4l2.53,2.14v-.19c1.04,.91,1.68,1.36,1.94,1.36s.97-.9,2.14-2.72c1.17-1.81,2.26-3.95,3.3-6.41l1.55-2.72c1.04-1.68,1.88-3.11,2.53-4.27,.65-1.17,1.29-1.88,1.94-2.14Zm0,55.36c-1.55-1.42-3.21-2.17-4.95-2.23-1.75-.06-2.95,.42-3.59,1.46-.26,.52-1.04,1.17-2.33,1.94-1.3,.78-2.66,1.62-4.08,2.53-1.04,.65-2.27,1.59-3.69,2.82-1.43,1.23-2.53,2.17-3.3,2.82l-2.72,3.3,.39,.39,4.27-2.53c.65-.26,1.49-.68,2.53-1.26,1.04-.58,1.94-1.13,2.72-1.65,.52-.26,.9-.55,1.17-.87,.26-.32,.65-.61,1.17-.87,1.17-1.03,2.56-1.81,4.18-2.33,1.62-.52,3.21-.78,4.76-.78,2.85,0,4.43-.13,4.76-.39,.32-.26-.1-1.04-1.26-2.33Zm3.3-51.87c-1.94,0-3.37,.32-4.27,.97-.91,.65-1.88,2.07-2.91,4.27-.91,2.2-1.72,4.47-2.43,6.8-.71,2.33-1.26,4.47-1.65,6.41-.39,1.94-.58,3.59-.58,4.95s.19,2.23,.58,2.62v-.19c.39,.39,1.36,.46,2.91,.19,1.55-.26,3.43-.9,5.63-1.94l6.99-3.11v-20.98h-4.27Zm.39,34.38c1.17-1.81,1.26-2.69,.29-2.62-.97,.07-3.2,.94-6.7,2.62-2.07,1.04-3.43,1.98-4.08,2.82-.65,.84-.97,2.23-.97,4.18v4.66l5.05-5.05v.19c1.55-1.17,2.91-2.43,4.08-3.79s1.94-2.36,2.33-3.01Zm2.53,34.77c0-.65,1-.78,3.01-.39,2.01,.39,4.6,1.1,7.77,2.14,3.17,1.04,6.67,2.36,10.49,3.98,3.82,1.62,7.51,3.27,11.07,4.95,3.56,1.68,6.8,3.37,9.71,5.05,2.91,1.68,5.02,3.17,6.31,4.47,1.94,1.81,2.91,3.5,2.91,5.05,0,1.04-.68,1.82-2.04,2.33-1.36,.52-3.14,.46-5.34-.19-3.37-.65-6.48-.65-9.32,0-1.94,.39-3.01,.36-3.21-.1-.19-.45,.22-1.91,1.26-4.37,.26-1.04-.32-2.14-1.75-3.3-1.43-1.17-4.08-2.85-7.97-5.05l-1.36-.78c-2.33-1.42-4.73-2.75-7.19-3.98-2.46-1.23-4.02-1.91-4.66-2.04-.78-.13-1.72-.55-2.82-1.26-1.1-.71-2.17-1.49-3.21-2.33-1.04-.84-1.91-1.65-2.62-2.43-.71-.78-1.07-1.36-1.07-1.75Z"/>
  <path d="M438.11,123.02c-2.85-1.42-4.15-2.33-3.88-2.72,.26-.39,2.46-.71,6.6-.97,2.98,0,5.37,.81,7.19,2.43,1.81,1.62,2.39,3.66,1.75,6.12-.26,1.04-.94,2.33-2.04,3.88-1.1,1.55-2.43,3.11-3.98,4.66-1.55,1.55-3.14,3.01-4.76,4.37-1.62,1.36-3.01,2.3-4.18,2.82-1.17,.65-1.84,1.26-2.04,1.84-.19,.58,.03,.87,.68,.87,4.01,0,6.28,.65,6.8,1.94,.52,1.3-.78,2.91-3.89,4.86v-.19c-.91,.65-1.68,1.3-2.33,1.94-.65,.65-.97,1.3-.97,1.94s-.26,1.39-.78,2.23c-.52,.84-1.43,1.52-2.72,2.04v-.19c-2.59,2.07-2.27,4.66,.97,7.77,1.68,1.55,2.62,2.75,2.82,3.59,.19,.84-.23,1.26-1.26,1.26-.26,0-.39,.26-.39,.78s.45,.78,1.36,.78c.26,0,.65-.19,1.17-.58,.52-.39,.9-.71,1.17-.97,.39-.52,1.23-.87,2.53-1.07,1.29-.19,2.65-.29,4.08-.29s2.72,.1,3.88,.29,1.75,.55,1.75,1.07c0,.91-.46,1.78-1.36,2.62-.91,.84-2.07,1.52-3.5,2.04l-7.97,4.27c-1.17,1.04-1.91,2.13-2.23,3.3-.32,1.16-.49,3.24-.49,6.22,0,2.2,.1,3.73,.29,4.57,.19,.84,.49,1.39,.87,1.65,1.29,.65,2.2,1.14,2.72,1.46,.52,.33,.58,.62,.19,.87-1.04,.78-1.81,2.23-2.33,4.37-.52,2.14-.71,4.5-.58,7.09,0,.39,.03,.81,.1,1.26,.06,.46,.1,1,.1,1.65v1.94c.13,1.81,.19,3.82,.19,6.02v5.24c0,4.14-.16,7.06-.49,8.74-.32,1.68-.68,2.78-1.07,3.3-2.2,2.2-4.18,2.98-5.93,2.33-1.75-.65-3.72-2.65-5.93-6.02-.91-1.3-1.94-2.66-3.11-4.08-1.17-1.42-2.43-2.75-3.79-3.98-1.36-1.23-2.69-2.3-3.98-3.21-1.3-.9-2.46-1.49-3.5-1.75h.19c-1.81-.39-3.95,.26-6.41,1.94-1.3,1.04-2.56,1.88-3.79,2.53-1.23,.65-2.17,.97-2.82,.97-2.2,0-4.21-.32-6.02-.97-1.82-.65-3.24-1.68-4.27-3.11-.78-1.42-1-2.33-.68-2.72,.32-.39,2.17-.78,5.54-1.17,.9,0,2.62-.52,5.15-1.55,2.53-1.04,5.34-2.26,8.45-3.69,3.11-1.42,6.22-2.91,9.32-4.47,3.11-1.55,5.7-2.91,7.77-4.08l3.3-1.94c.52-.91,.97-2.07,1.36-3.5,.39-1.42,.71-2.91,.97-4.47,.26-1.55,.42-3.04,.49-4.47,.06-1.42,.03-2.53-.1-3.3v.19c-.26-.39-1.55-.06-3.88,.97-2.33,1.04-5.05,2.53-8.16,4.47-1.82,1.04-3.59,1.98-5.34,2.82-1.75,.85-2.75,1.26-3.01,1.26s-1,.33-2.23,.97c-1.23,.65-2.62,1.55-4.18,2.72-2.98,1.43-5.08,2.27-6.31,2.53-1.23,.26-2.36-.45-3.4-2.14-.78-1.68-.65-3.4,.39-5.15,1.04-1.75,3.56-4.5,7.58-8.25,3.75-4.27,7.28-8.35,10.59-12.24,3.3-3.88,6.18-7.31,8.64-10.3,2.46-2.98,4.43-5.41,5.93-7.29,1.49-1.87,2.23-3.01,2.23-3.4l-7.58,2.53c-4.27,1.94-8.45,3.5-12.53,4.66s-7.03,1.36-8.84,.58c-2.59-1.42-3.69-2.3-3.3-2.62,.39-.32,2.46-.61,6.22-.87,.9,0,2.62-.42,5.15-1.26,2.53-.84,5.15-1.78,7.87-2.82,2.2-1.17,4.18-2.3,5.93-3.4,1.75-1.1,3.46-2.36,5.15-3.79,1.68-1.42,3.37-3.08,5.05-4.95,1.68-1.88,3.62-4.11,5.83-6.7,.9-1.29,1.88-2.46,2.91-3.5,1.04-1.04,1.88-1.87,2.53-2.53v-.58c-.26-1.94,.13-3.43,1.17-4.47,.78-.26,1.1-.87,.97-1.84-.13-.97-.65-1.65-1.55-2.04Zm-3.11-16.71c2.2-.65,4.57-.65,7.09,0,2.53,.65,3.92,1.68,4.18,3.11,.13,1.04-.68,1.98-2.43,2.82-1.75,.84-4.05,1.65-6.9,2.43l-2.72,.78-1.94,.58-2.14,.58-6.6,1.94c-1.04,.52-2.4,1-4.08,1.46-1.68,.46-3.04,.75-4.08,.87l-.78,.58h.2c-.26,.26-.71,.39-1.36,.39-.26,2.33-.36,4.18-.29,5.54,.06,1.36,.49,2.82,1.26,4.37,.26,1.55,.45,3.05,.58,4.47,.13,1.43,.06,2.33-.19,2.72-.26,.39-.55,1.14-.87,2.23-.32,1.1-.62,2.11-.87,3.01-.26,1.69-.87,2.98-1.84,3.89-.97,.91-1.98,1.17-3.01,.78-.65-.26-1.26-.71-1.84-1.36-.58-.65-.87-1.36-.87-2.14v-.19c-1.81-.13-2.69-1.71-2.62-4.76,.06-3.04,.74-6.63,2.04-10.78,.65-1.55,1.17-3.01,1.55-4.37,.39-1.36,.65-2.43,.78-3.21-.13,0-.32-.03-.58-.1-.26-.06-.46-.1-.58-.1-.26,0-.58-.06-.97-.19-.39-.13-.71-.19-.97-.19l-1.36-.58c-1.55-.13-3.11-.42-4.66-.87-1.55-.45-2.79-.94-3.69-1.46-3.37-2.2-4.79-3.43-4.27-3.69,.52-.26,3.17,.07,7.97,.97,1.04,.26,2.43,.36,4.18,.29,1.75-.06,3.59-.26,5.54-.58,1.94-.32,3.82-.71,5.63-1.17,1.81-.45,3.37-.87,4.66-1.26,.78-.39,1.88-.87,3.3-1.46,1.42-.58,2.94-1.2,4.57-1.84,1.62-.65,3.24-1.29,4.86-1.94,1.62-.65,3.01-1.17,4.18-1.55Zm-10.68,67.41c-.52-.9-.84-1.75-.97-2.53-.13-.52-.19-.9-.19-1.17-.13,0-.71,.55-1.75,1.65-1.04,1.1-2.07,2.23-3.11,3.4-1.16,1.3-2.23,2.53-3.2,3.69s-1.91,1.75-2.82,1.75h-.39c0,.65-.32,1.3-.97,1.94l-1.17,2.13-4.27,5.83,.39-.19c.65-.52,1.33-.94,2.04-1.26,.71-.32,1.2-.55,1.46-.68,.9-.26,2.14-.78,3.69-1.55,1.55-.78,3.11-1.62,4.66-2.53,1.55-.9,2.94-1.78,4.18-2.62,1.23-.84,2.04-1.46,2.43-1.84,.13-.65,.2-1.58,.2-2.82s-.07-2.36-.2-3.4v.19Zm-1.55,36.71c-1.04,.52-2.5,1.39-4.37,2.62-1.88,1.23-2.95,1.91-3.21,2.04-.91,.13-1.78,.49-2.62,1.07-.84,.58-1.49,1.23-1.94,1.94-.46,.71-.65,1.33-.58,1.84,.06,.52,.49,.78,1.26,.78,.65,0,1.46,.19,2.43,.58,.97,.39,1.91,.97,2.82,1.75,1.17,.78,2.36,1.43,3.59,1.94,1.23,.52,1.97,.65,2.23,.39,.52-1.94,.9-3.92,1.17-5.93,.26-2.01,.39-3.59,.39-4.76,0-2.59-.13-4.01-.39-4.27v.19l-.78-.19Zm-10.88-120.05c-.39-.65-.49-1.23-.29-1.75,.19-.52,.61-.78,1.26-.78l5.44,.58c4.66,.65,8.74,1.62,12.24,2.91,3.5,1.3,5.24,2.66,5.24,4.08s-.81,2.46-2.43,3.11c-1.62,.65-3.79,1.3-6.51,1.94h.19l-5.05,1.17c-2.33,.65-4.02,1.04-5.05,1.17-1.04,.13-1.1-.32-.19-1.36,1.94-1.55,2.94-3.08,3.01-4.57,.06-1.49-1-2.82-3.21-3.98l-4.66-2.53Zm34.58,118.11c-1.3-1.81-2.53-3.43-3.69-4.86-1.17-1.42-1.94-2.33-2.33-2.72l-.19,.19c-3.63-2.2-5.21-3.5-4.76-3.88,.45-.39,3.59-.52,9.42-.39,3.5,.26,5.79,.68,6.9,1.26,1.1,.58,1.85,1.98,2.23,4.18l1.55,5.44,.39,1.75c.9,2.59,1.29,4.21,1.17,4.86-.13,.65-1.17,.97-3.11,.97-1.04,0-2.2-.61-3.5-1.84-1.3-1.23-2.66-2.88-4.08-4.95Zm40.6-93.83c-.78-3.37-.52-5.08,.78-5.15,1.29-.06,3.5,1.59,6.61,4.95l2.72,4.08c0,.13-.13,.26-.39,.39l-2.72,2.72h.19c-.78,.78-2.52,2.14-5.24,4.08-2.72,1.94-5.7,4.02-8.94,6.22-3.24,2.2-6.38,4.27-9.42,6.22-3.05,1.94-5.15,3.24-6.31,3.89-.26,.39-.39,.75-.39,1.07s.39,.87,1.17,1.65c2.46,2.33,4.14,5.57,5.05,9.71,.65,3.5,1.17,5.8,1.55,6.9,.39,1.1,.9,1.65,1.55,1.65s2.04-.49,4.18-1.46c2.14-.97,4.43-2.1,6.9-3.4,2.46-1.29,4.86-2.65,7.19-4.08,2.33-1.42,4.08-2.65,5.24-3.69,1.29-1.04,2.91-1.97,4.86-2.82,1.94-.84,3.89-1.55,5.83-2.14,1.94-.58,3.76-.94,5.44-1.07,1.68-.13,2.98,0,3.89,.39,1.04,.65,1.65,1.26,1.85,1.84,.19,.58-.36,1.39-1.65,2.43-1.17,.91-2.4,1.72-3.69,2.43-1.29,.71-2.46,1.39-3.49,2.04-.52,.26-1.1,.49-1.75,.68-.65,.19-1.1,.42-1.36,.68l-3.69,1.94c-3.76,2.07-6.31,3.56-7.67,4.47-1.36,.91-2.04,2.14-2.04,3.69,0,.78,.06,1.84,.19,3.2s.45,3.01,.97,4.95c.39,1.17,.68,2.88,.87,5.15,.19,2.27,.39,4.79,.58,7.57,.2,2.79,.33,5.73,.39,8.84,.07,3.11,.1,6.22,.1,9.32,0,4.66-.07,8.65-.19,11.95-.13,3.3-.39,5.34-.78,6.12-.39,.65-.75,1.65-1.07,3.01-.33,1.36-.62,2.62-.87,3.79,0,1.68-.29,3.3-.87,4.86-.58,1.55-1.23,2.91-1.94,4.08-.71,1.17-1.46,2.01-2.23,2.53-.78,.52-1.43,.52-1.94,0-.52-.39-.78-.94-.78-1.65s.13-1.59,.39-2.62c.39-1.04,.65-3.69,.78-7.97,.13-4.27,.19-9.32,.19-15.15,0-5.05-.07-10.23-.19-15.54-.13-5.31-.26-10.2-.39-14.67-.13-4.47-.26-8.16-.39-11.07-.13-2.91-.26-4.57-.39-4.95h.19c-.26-.26-.97-.29-2.14-.1s-2.91,.81-5.25,1.84c-3.76,.78-6.31,1.88-7.67,3.3-1.36,1.43-2.04,3.76-2.04,6.99,0,1.17-.42,2.79-1.26,4.86-.84,2.07-1.84,4.18-3.01,6.31s-2.3,3.98-3.4,5.54c-1.1,1.55-1.91,2.33-2.43,2.33-1.68,0-3.01-.74-3.98-2.24-.97-1.49-1.46-3.14-1.46-4.95,0-1.17,.23-2.82,.68-4.95,.45-2.14,1.07-4.18,1.84-6.12,1.04-2.59,2.04-5.41,3.01-8.45,.97-3.04,1.78-5.96,2.43-8.74,.65-2.78,1.1-5.27,1.36-7.48,.26-2.2,.26-3.88,0-5.05-.26-.65-.68-1.36-1.26-2.14-.58-.78-1.14-1.36-1.65-1.75-2.59-1.55-3.37-3.08-2.33-4.57,1.04-1.49,3.56-3.4,7.58-5.73,2.46-1.42,5.24-3.24,8.35-5.44,3.11-2.2,5.57-4.01,7.38-5.44,2.72-2.59,4.53-4.63,5.44-6.12,.9-1.49,1.23-2.82,.97-3.98Z"/>
  <path d="M556.61,132.54c0-1.42,.84-1.75,2.53-.97,1.68,.78,3.23,2.01,4.66,3.69,1.04,1.3,1.88,2.79,2.53,4.47,.64,1.68,1.23,3.82,1.75,6.41,.52,2.59,.94,5.83,1.26,9.71s.68,8.61,1.07,14.18c0,.65,.03,1.23,.1,1.75,.06,.52,.1,1.04,.1,1.55,.26,4.02,.45,6.99,.58,8.94,.13,1.3,.19,2.46,.19,3.5,.26-.65,.65-1.26,1.16-1.84,.52-.58,.91-.87,1.17-.87,1.04,0,1.49,.39,1.36,1.16-.13,.78-.91,3.24-2.33,7.38-.65,1.94-1.23,4.05-1.75,6.31-.52,2.27-.91,4.11-1.17,5.54-.13,1.82-.46,3.59-.97,5.34-.52,1.75-1.14,3.3-1.85,4.66-.71,1.36-1.46,2.49-2.23,3.4-.78,.91-1.43,1.36-1.94,1.36-.65,0-1.39-.32-2.23-.97-.84-.65-1.59-1.42-2.24-2.33-.52-.65-.91-1.29-1.16-1.94-.26-.65-.39-1.52-.39-2.62s.13-2.62,.39-4.57c.26-1.94,.65-4.53,1.16-7.77,1.04-8.29,1.91-15.6,2.62-21.95,.71-6.34,1.07-11.72,1.07-16.12v-6.02c0-3.11-.07-5.63-.19-7.58-.13-1.94-.29-3.53-.49-4.76-.19-1.23-.49-2.2-.87-2.91-.39-.71-.84-1.46-1.36-2.23h.19c-.91-.9-1.59-1.72-2.04-2.43-.46-.71-.68-1.2-.68-1.46Zm52.06-10.3c2.59-1.81,3.72-2.01,3.4-.58-.32,1.43-1.65,3.76-3.98,6.99-.91,1.17-1.72,2.23-2.43,3.2s-1.2,1.59-1.46,1.85c.26,.26,.29,.71,.1,1.36-.19,.65-.55,1.3-1.07,1.94-.78,1.69-.71,2.66,.19,2.91,1.81,.65,4.05,.78,6.7,.39,2.65-.39,5.34-1.29,8.06-2.72,3.37-1.42,6.25-2.26,8.64-2.53,2.4-.26,4.43,0,6.12,.78,.65,.39,1.04,.91,1.17,1.55,.13,.65,.13,1.1,0,1.36-.13,.39-.68,.87-1.65,1.46-.97,.58-2.2,1.2-3.69,1.85-1.49,.65-3.14,1.3-4.95,1.94-1.81,.65-3.56,1.23-5.24,1.75-.39,.13-.87,.58-1.46,1.36-.58,.78-1.16,1.68-1.75,2.72-.58,1.04-1.04,2.07-1.36,3.11-.33,1.04-.42,1.81-.29,2.33l1.17-1.55,1.55-1.55h-.19c2.33-3.88,5.24-6.44,8.74-7.67,3.5-1.23,6.34-.81,8.55,1.26,1.68,1.81,2.85,4.95,3.5,9.42,.65,4.47,.97,11.63,.97,21.47v9.81c0,2.4,.06,4.18,.19,5.34,.13,1.17,.32,1.88,.58,2.14,.26,.26,.64,.39,1.16,.39,1.42,0,2.14-.58,2.14-1.75,0-1.42,.61-2.33,1.84-2.72,1.23-.39,2.24,.07,3.01,1.36,.13,.26,.78,.49,1.94,.68,1.16,.19,2.46,.29,3.88,.29,3.37,0,5.83,.48,7.38,1.46,1.55,.97,2.01,2.3,1.36,3.98-.26,.39-.75,.81-1.46,1.26-.71,.46-1.52,.81-2.43,1.07-.39,0-.94,.07-1.65,.19-.71,.13-1.59,.32-2.62,.58l-7.38,1.17-8.94,1.94-1.17,10.1c-.78,7.64-2.13,13.47-4.08,17.48-1.04,1.55-1.85,3.14-2.43,4.76-.58,1.62-.87,2.75-.87,3.4,0,1.04-.71,1.55-2.14,1.55-1.04-.39-1.55-.91-1.55-1.55,.13-1.3,.39-3.76,.78-7.38s.71-7.31,.97-11.07c.26-3.76,.48-7.09,.68-10.01s.23-4.43,.1-4.57c-.13-.26-1.1-.16-2.91,.29-1.82,.46-3.82,1.2-6.02,2.24l-3.69,1.36c-2.85,1.04-5.7,2.07-8.55,3.11-2.85,1.04-6.48,2.2-10.88,3.5-2.59,.91-4.76,1.43-6.51,1.55-1.75,.13-3.46-.13-5.15-.78-2.72-1.04-4.27-2.1-4.66-3.21-.39-1.1,.71-2.23,3.3-3.4,1.04-.52,2.65-1.46,4.86-2.82,2.2-1.36,4.43-2.82,6.7-4.37,2.26-1.55,4.3-2.98,6.12-4.27,1.81-1.29,2.85-2.14,3.11-2.53,.26-.13,.26-.61,0-1.46-.26-.84-.52-1.72-.78-2.62-.39-1.04-.68-1.97-.87-2.82-.19-.84-.29-1.84-.29-3.01,0-1.43,.19-3.5,.58-6.22,.39-1.81,.68-3.95,.87-6.41,.19-2.46,.29-4.27,.29-5.44,0-1.55,.39-3.69,1.16-6.41,.78-2.72,1.62-5.37,2.53-7.97l3.11-8.35-3.89-1.17h.19c-1.3-.26-2.49-.68-3.59-1.26-1.1-.58-1.78-1.2-2.04-1.84-.26-.26-.81-.52-1.65-.78-.85-.26-1.78-.32-2.82-.19-1.04,.13-2.33,.07-3.89-.19-1.55-.26-2.85-.52-3.88-.78-1.04-.39-2.07-1.1-3.11-2.14-1.04-1.04-1.97-2.17-2.82-3.4-.85-1.23-1.55-2.49-2.14-3.79-.58-1.29-.87-2.46-.87-3.5,0-1.68,.23-2.46,.68-2.33,.45,.13,1.97,1.43,4.56,3.88,2.2,2.07,3.75,3.3,4.66,3.69,.91,.39,2.2,.26,3.89-.39,1.16-.52,2.59-1.23,4.27-2.14,1.68-.9,3.11-1.88,4.27-2.91l5.05-3.5,2.14-1.55Zm-29.33-20.79c-.39-1.04,2.01-1.49,7.19-1.36,3.37,.13,6.05,.42,8.06,.87,2.01,.46,4.24,1.39,6.7,2.82,1.94,1.17,3.53,2.2,4.76,3.11,1.23,.91,1.97,1.68,2.23,2.33,.52,1.3,.06,2.5-1.36,3.59-1.43,1.1-3.24,1.65-5.44,1.65-.65,0-1.59,.23-2.82,.68-1.23,.46-2.43,1.2-3.59,2.23-1.43,.65-2.69,1.17-3.79,1.55-1.1,.39-1.78,.26-2.04-.39-.13-.26-.13-1.1,0-2.53,.13-1.42,.39-2.91,.78-4.47,.65-2.07,.68-3.5,.1-4.27s-2.43-1.68-5.54-2.72c-1.04-.39-1.91-.78-2.62-1.17-.71-.39-1.2-.71-1.46-.97l-.97-.97h-.19Zm49.73,79.06c.13-1.55,.22-3.08,.29-4.57,.06-1.49,.1-2.88,.1-4.18,0-4.66-.13-7.12-.39-7.38-.13,.13-.26,.32-.39,.58-.13,.26-.29,.46-.48,.58-.19,.13-.42,.32-.68,.58l-2.33,1.94c-.78,.91-1.75,2.01-2.91,3.3-1.17,1.3-2.27,2.46-3.3,3.5-1.55,1.68-2.17,2.82-1.84,3.4,.32,.58,1.39,.87,3.21,.87,5.44,0,8.16,1.1,8.16,3.3,0,1.55-1.55,3.37-4.66,5.44-1.3,.65-3.34,2.01-6.12,4.08-2.79,2.07-5.57,4.21-8.35,6.41-2.79,2.2-5.22,4.21-7.29,6.02-2.07,1.81-2.98,2.79-2.72,2.91,.26,.39,1.26,.39,3.01,0s3.46-.97,5.15-1.75c1.42-.65,3.17-1.36,5.24-2.14,2.07-.78,3.88-1.49,5.44-2.14l1.75-.78c1.81-.39,3.46-.9,4.95-1.55,1.49-.64,2.36-1.16,2.62-1.55,.13-.13,.26-.68,.39-1.65,.13-.97,.26-2.24,.39-3.79,.13-1.55,.26-3.33,.39-5.34s.26-4.05,.39-6.12Zm-13.21,3.69c-.13-.26-.49-.52-1.07-.78-.58-.26-1.14-.52-1.65-.78-1.3-.26-2.17,0-2.62,.78-.46,.78-.68,2.65-.68,5.63l.19,2.72,1.65-1.65c.71-.71,1.2-1.26,1.46-1.65,.65-1.04,1.26-1.97,1.84-2.82,.58-.84,.87-1.33,.87-1.46Zm1.75-22.34c-.39-.78-1.23-.9-2.53-.39-.26,.65-.65,1.62-1.17,2.91-.52,1.3-1.04,2.66-1.55,4.08-.52,1.43-.94,2.69-1.26,3.79-.33,1.1-.42,1.65-.29,1.65,.26,.26,.81-.19,1.65-1.36,.84-1.17,1.68-2.49,2.53-3.98,.84-1.49,1.52-2.91,2.04-4.27,.52-1.36,.71-2.17,.58-2.43Zm11.07-8.74c-.13-1.29-.32-2.43-.58-3.4-.26-.97-.52-1.46-.78-1.46-1.17-.39-2.53-.1-4.08,.87-1.55,.97-2.65,2.17-3.3,3.59-.39,.91-.68,1.62-.87,2.14-.19,.52-.13,.94,.19,1.26,.32,.32,.97,.58,1.94,.78,.97,.19,2.36,.42,4.18,.68l3.5,.78c0-.9-.03-1.81-.1-2.72-.07-.9-.1-1.75-.1-2.53Zm30.31-50.51c1.68-1.17,4.14-1.75,7.38-1.75,1.81,0,3.63,.26,5.44,.78,1.81,.52,3.24,1.3,4.27,2.33,.65,.65,1.13,1.2,1.46,1.65,.32,.46,.52,.94,.58,1.46,.06,.52,.03,1.17-.1,1.94-.13,.78-.33,1.75-.58,2.91-.52,1.55-.91,5.41-1.17,11.56-.26,6.15-.39,13.31-.39,21.47,0,6.99,.1,14.25,.29,21.76,.19,7.51,.55,14.38,1.07,20.59,.26,4.4,.42,8.09,.48,11.07,.06,2.98,.1,5.57,.1,7.77,0,2.85-.1,5.28-.29,7.29-.19,2.01-.49,4.31-.87,6.9-.52,2.98-.97,5.41-1.36,7.29-.39,1.88-.81,3.47-1.26,4.76-.46,1.29-1.01,2.4-1.65,3.3-.65,.9-1.43,1.81-2.33,2.72h.19c-1.69,1.81-2.82,2.78-3.4,2.91-.58,.13-.87-.58-.87-2.14,0-.91-.13-1.59-.39-2.04-.26-.46-.52-.81-.78-1.07v.19c-.39-.13-.71-.55-.97-1.26-.26-.71-.39-1.39-.39-2.04,0-.39-.52-1.65-1.55-3.79-1.04-2.14-2.14-4.5-3.3-7.09-1.43-2.33-2.59-4.4-3.5-6.22-.91-1.81-1.16-2.91-.78-3.3,.52-.52,1.52-.49,3.01,.1,1.49,.58,2.23,1.2,2.23,1.84,0,.13,.35,.39,1.07,.78,.71,.39,1.49,.84,2.33,1.36,.84,.52,1.65,.94,2.43,1.26,.78,.32,1.29,.42,1.55,.29v.19c.52-.52,.97-2.72,1.36-6.6,.39-3.89,.58-8.55,.58-13.99v-4.08c0-1.29-.07-2.65-.19-4.08v-5.53c0-2.14-.07-4.5-.19-7.09l-.78-34.19c0-4.01-.03-7.93-.1-11.75-.07-3.82-.13-7.25-.19-10.3-.07-3.04-.13-5.57-.19-7.58-.07-2.01-.17-3.21-.29-3.59-.13-1.42-.84-2.3-2.14-2.62-1.3-.32-2.79,.23-4.47,1.65-3.37,2.2-5.9,4.24-7.58,6.12-1.68,1.88-2.53,3.14-2.53,3.79s-.29,1.43-.87,2.33c-.58,.91-1.26,1.88-2.04,2.91-1.81,2.07-4.54,3.11-8.16,3.11-1.55,0-3.08-.26-4.57-.78-1.49-.52-2.75-1.29-3.79-2.33v.19c-1.04-.65-1.81-1.49-2.33-2.53-.52-1.04-.78-1.81-.78-2.33,0-1.17,.32-1.75,.97-1.75s1.88,.39,3.69,1.17c1.16,.52,2.23,.65,3.21,.39,.97-.26,2.62-1.23,4.95-2.91,1.68-1.04,3.59-2.3,5.73-3.79,2.14-1.49,3.92-2.75,5.34-3.79v.19c1.04-1.04,2.33-2.23,3.89-3.59,1.55-1.36,2.72-2.17,3.5-2.43Z"/>
  <path d="M745.04,89.8c.52-.26,1.1-.42,1.75-.49,.65-.06,1.17,.03,1.55,.29,3.37,1.04,5.89,2.04,7.58,3.01,1.68,.97,3.04,2.3,4.08,3.98,1.04,1.94,2.04,3.27,3.01,3.98,.97,.71,2.88,1.07,5.73,1.07,2.07,0,3.72,.26,4.95,.78,1.23,.52,2.43,1.23,3.59,2.14l.19,.39c.52,.91,1,1.78,1.46,2.62,.45,.84,.68,1.39,.68,1.65,0,.78-.52,1.85-1.55,3.21-1.04,1.36-2.23,2.72-3.59,4.08-1.36,1.36-2.72,2.56-4.08,3.59-1.36,1.04-2.43,1.62-3.21,1.75-1.04,.26-1.88,.81-2.53,1.65-.65,.84-1.07,1.82-1.26,2.91-.19,1.1-.19,2.2,0,3.3,.19,1.1,.61,1.98,1.26,2.62,1.43,1.04,2.2,2.07,2.33,3.11,.13,1.04-.52,2.27-1.94,3.69h.39c-1.04,1.17-1.98,2.62-2.82,4.37-.84,1.75-1.39,3.2-1.65,4.37l-.97,4.66,4.86-.58c2.85-.39,5.76-.58,8.74-.58,1.81,0,3.53,.1,5.15,.29,1.62,.19,2.75,.49,3.4,.87,3.23,2.33,1.68,6.67-4.66,13.02-1.68,1.68-3.27,3.18-4.76,4.47-1.49,1.3-2.43,1.94-2.82,1.94-.52,0-1.3,.33-2.33,.97-1.04,.65-2.11,1.39-3.21,2.23-1.1,.84-2.04,1.72-2.82,2.62-.78,.91-1.16,1.62-1.16,2.14,0,.78,.78,1.49,2.33,2.14l1.16,.78c2.59,1.04,3.59,2.3,3.01,3.79-.58,1.49-2.56,3.59-5.93,6.31-2.2,1.82-4.15,3.63-5.83,5.44-1.68,1.82-2.53,2.91-2.53,3.3,0,.52,.42,1.17,1.26,1.94,.84,.78,1.78,1.3,2.82,1.55,1.04,.26,2.24,.75,3.59,1.46,1.36,.71,2.36,1.39,3.01,2.04,1.42,1.04,2.46,1.59,3.11,1.65,.65,.06,1.62-.49,2.91-1.65,.39,0,.91-.32,1.55-.97h.19l1.17,8.55,.39,2.72c.26,4.14,.32,6.93,.19,8.35-.13,1.43-.65,2.27-1.55,2.53-1.3,.52-3.05-.42-5.24-2.82-2.2-2.39-4.02-5.34-5.44-8.84-1.43-4.01-2.91-7.06-4.47-9.13-1.55-2.07-2.85-3.11-3.89-3.11-.26,0-.71,.36-1.36,1.07-.65,.71-1.39,1.68-2.24,2.91-.84,1.23-1.78,2.62-2.82,4.18-1.04,1.55-2.01,3.17-2.92,4.86-.39,.52-.75,1-1.07,1.46-.32,.46-.62,.94-.87,1.46-1.82,2.46-3.3,4.54-4.47,6.22-1.17,1.69-1.75,2.59-1.75,2.72-.52,.39-1.43,1.1-2.72,2.13-1.3,1.04-2.53,2.26-3.69,3.69-1.68,2.2-3.08,3.69-4.18,4.47-1.1,.78-2.17,1.1-3.21,.97-1.16-.26-1.75-.91-1.75-1.94s.39-2.07,1.16-3.11c.26,.52,.65,.78,1.17,.78,.26,0,1.2-1.07,2.82-3.2,1.62-2.14,3.4-4.6,5.34-7.38,1.94-2.78,3.82-5.6,5.63-8.45s3.11-5.05,3.89-6.61c.78-1.68,1.33-2.98,1.65-3.89,.32-.9,.1-1.39-.68-1.46-.78-.06-2.17,.26-4.18,.97-2.01,.71-4.95,1.78-8.84,3.2-2.85,1.3-5.63,2.24-8.35,2.82-2.72,.58-5.18,.87-7.38,.87-3.11,0-5.8-.55-8.06-1.65-2.27-1.1-3.79-2.49-4.57-4.18-.26-.39,0-.55,.78-.48,.78,.07,1.55,.23,2.33,.48,1.81,.91,3.95,1.36,6.41,1.36,3.75,0,7.9-.78,12.43-2.33,1.94-.78,4.34-1.88,7.19-3.3,2.85-1.42,5.7-2.92,8.55-4.47,2.85-1.55,5.47-3.07,7.87-4.57,2.39-1.49,4.04-2.69,4.95-3.59,1.29-1.42,2.4-3.46,3.3-6.12,.91-2.65,1.23-5.27,.97-7.87-.26-2.2-1.17-4.37-2.72-6.51-1.55-2.14-2.98-3.21-4.27-3.21-.65,0-1.72,.49-3.21,1.46-1.49,.97-3.14,2.2-4.95,3.69-1.82,1.49-3.63,3.14-5.44,4.95-1.81,1.81-3.37,3.56-4.66,5.24-1.04,1.68-2.01,3.11-2.91,4.27-.91,1.16-1.49,1.62-1.75,1.36-.78-.26-1.3-1.62-1.55-4.08-.13-1.04-.17-1.91-.1-2.62,.06-.71,.29-1.42,.68-2.14,.39-.71,.97-1.49,1.75-2.33,.78-.84,1.88-1.97,3.3-3.4,4.27-4.14,7.45-7.54,9.52-10.2,2.07-2.65,2.98-4.82,2.72-6.51,0-1.17,.39-1.75,1.17-1.75,1.04,.13,2.17-.49,3.4-1.84,1.23-1.36,2.55-3.14,3.98-5.34-.26,.26-.1-.06,.48-.97,.58-.9,1-1.49,1.26-1.75,.65-1.68,1.1-3.27,1.36-4.76,.26-1.49,.26-2.56,0-3.2-1.43,.65-2.85,1.3-4.27,1.94-1.43,.65-2.98,1.33-4.66,2.04-1.68,.71-3.5,1.59-5.44,2.62-8.03,3.37-14.15,5.47-18.36,6.31-4.21,.84-7.09,.55-8.64-.87h.19c-.65-1.04-1-2.43-1.07-4.18-.07-1.75,.16-3.14,.68-4.18,.26,.13,.52,.39,.78,.78,.26,.39,.52,.71,.78,.97,.65,2.07,2.65,2.91,6.02,2.53,2.72-.39,6.51-1.55,11.36-3.5,4.86-1.94,10.39-4.34,16.61-7.19,1.94-.9,3.46-1.68,4.56-2.33,1.1-.65,1.97-1.29,2.62-1.94,.64-.65,1.07-1.39,1.26-2.23,.19-.84,.35-1.91,.48-3.21,.39-3.62,.55-6.63,.49-9.03-.07-2.39-.42-3.59-1.07-3.59-.52,0-1.2,.39-2.04,1.17-.85,.78-1.75,1.75-2.72,2.91-.97,1.17-1.85,2.4-2.62,3.69-.78,1.3-1.36,2.4-1.75,3.3-.39,1.04-.97,2.23-1.75,3.59-.78,1.36-1.49,2.43-2.13,3.21-.78,.91-1.39,1.43-1.85,1.55-.46,.13-1.14-.06-2.04-.58-2.2-1.04-3.82-2.88-4.86-5.54-1.04-2.65-1.55-6.44-1.55-11.36,0-5.96,.45-8.94,1.36-8.94,.39,0,1.16,2.01,2.33,6.02,.52,1.43,1.13,2.85,1.84,4.27,.71,1.43,1.46,2.33,2.24,2.72,.64,0,1.75-.52,3.3-1.55,1.55-1.04,3.17-2.23,4.86-3.59,1.68-1.36,3.21-2.72,4.56-4.08,1.36-1.36,2.24-2.43,2.62-3.2,.26-.52,.35-1.49,.29-2.91-.07-1.42-.23-2.91-.49-4.47-.65-2.2-1.33-3.79-2.04-4.76-.71-.97-1.97-1.97-3.79-3.01-1.3-.65-2.13-1.07-2.53-1.26-.39-.19-.46-.42-.19-.68Zm-24.28,146.28c0-.13,.13-.33,.39-.58l-.39,.58Zm52.64-79.26c0-1.04-1.43-1.36-4.27-.97-.78,.26-1.36,.39-1.75,.39-.26,0-.42,.03-.49,.1-.07,.07-.17,.1-.29,.1h-.78c-1.82,.26-2.95,.68-3.4,1.26-.46,.58-.68,1.84-.68,3.79,0,.78-.03,1.65-.1,2.62-.07,.97-.17,1.98-.29,3.01,0,.26-.03,.42-.1,.49-.07,.07-.1,.23-.1,.49v.78l-2.14,6.8,5.63-4.66c.78-.65,1.68-1.65,2.72-3.01,1.04-1.36,1.97-2.78,2.82-4.27,.84-1.49,1.58-2.88,2.24-4.18,.64-1.29,.97-2.2,.97-2.72Zm-3.69-50.9c0-.9-.87-1.52-2.62-1.85-1.75-.32-3.14,.03-4.18,1.07v-.19c-.39,.13-.68,.87-.87,2.23s-.29,2.95-.29,4.76c0,2.59,.23,4.24,.68,4.95,.45,.71,1.33,.94,2.62,.68,.52-.13,1.04-.65,1.55-1.55,.52-.9,1-1.97,1.46-3.21,.45-1.23,.84-2.49,1.17-3.79,.32-1.29,.49-2.33,.49-3.11Zm1.36,101.21l.39-.39c.52,.65,.39,.97-.39,.97v-.58Zm4.86-32.83c0-.26,.68-.1,2.04,.49,1.36,.58,3.01,1.59,4.95,3.01,2.33,1.43,3.85,3.01,4.56,4.76s.75,3.53,.1,5.34c-.39,.65-1.04,1.36-1.94,2.14-.91,.78-1.78,1.49-2.62,2.14-.84,.65-1.65,1.13-2.43,1.46s-1.3,.36-1.55,.1c.13-.65,.19-1.29,.19-1.94v-1.84c0-.58,.06-1.2,.2-1.84,.64-3.63,.45-6.47-.58-8.55-1.04-1.29-1.78-2.43-2.23-3.4-.46-.97-.68-1.58-.68-1.85Zm30.89,25.64c3.23-1.42,6.15-1.94,8.74-1.55,4.53,.78,6.8,2.27,6.8,4.47,0,1.16-1.1,2.66-3.3,4.47-.78,.65-1.82,1.72-3.11,3.21-1.3,1.49-2.33,2.88-3.11,4.18-.91,1.55-2.04,3.14-3.4,4.76-1.36,1.62-2.79,3.11-4.27,4.47-1.49,1.36-3.05,2.59-4.66,3.69-1.62,1.1-3.14,1.84-4.57,2.23-2.33,1.04-3.95,1.55-4.86,1.55,0-.26,.39-.87,1.17-1.85,.78-.97,1.81-2.17,3.11-3.59h-.19c1.29-1.29,2.69-2.92,4.18-4.86,1.49-1.94,2.82-3.89,3.98-5.83,1.17-1.94,2.14-3.69,2.92-5.24,.78-1.55,1.16-2.59,1.16-3.11-.39-.13-1.07-.16-2.04-.1-.97,.07-1.85,.23-2.62,.49-.26,0-.39,.03-.39,.1,0,.07-.13,.1-.39,.1-1.04,.26-2.07,.46-3.11,.58-1.04,.13-2.01,.19-2.92,.19-.78,0-1.72-.16-2.82-.48-1.1-.32-2.24-.71-3.4-1.17-1.17-.45-2.24-.94-3.21-1.46-.97-.52-1.72-1.04-2.23-1.55-.39-.78-.2-1.26,.58-1.46,.78-.19,1.81-.03,3.11,.49,2.07,1.16,4.6,1.49,7.58,.97,2.98-.52,6.73-1.75,11.27-3.69Zm10.1-90.14c5.18-2.72,9.32-4.08,12.43-4.08,2.46,0,4.53,.84,6.22,2.53h-.19c.9,1.3,1.36,2.27,1.36,2.91s-.32,1.3-.97,1.94c-.26,.52-.91,.78-1.94,.78s-2.75,.75-5.15,2.23c-2.4,1.49-4.89,3.3-7.48,5.44-2.59,2.14-4.99,4.31-7.19,6.51-2.2,2.2-3.63,3.95-4.27,5.24-.39,1.17-.78,2.98-1.16,5.44-.39,2.46-.68,4.86-.87,7.19s-.23,4.31-.1,5.93c.13,1.62,.52,2.23,1.17,1.84,.13-.13,.29-.29,.48-.49s.36-.42,.49-.68c.65-.78,1.58-1.84,2.82-3.2,1.23-1.36,2.55-2.75,3.98-4.18,3.88-4.14,7.22-7.12,10-8.94,2.78-1.81,5.6-2.72,8.45-2.72,1.81,0,3.3,.23,4.47,.68,1.17,.46,2.1,1.33,2.82,2.62,.71,1.3,1.29,3.01,1.75,5.15,.45,2.14,.87,4.89,1.26,8.26,.26,2.72,.48,5.73,.68,9.03,.19,3.3,.29,6.51,.29,9.62,0,4.02-.13,8.06-.39,12.14-.26,4.08-.62,7.96-1.07,11.65-.46,3.69-1,7.03-1.65,10.01-.65,2.98-1.36,5.38-2.14,7.19-.26,.65-.17,1.46,.29,2.43,.45,.97,1.13,1.78,2.04,2.43,1.68,1.43,3.5,3.14,5.44,5.15,1.94,2.01,3.72,4.08,5.34,6.22,1.62,2.14,2.94,4.18,3.98,6.12,1.04,1.94,1.55,3.43,1.55,4.47s-.91,1.52-2.72,1.46c-1.82-.07-4.15-.68-6.99-1.84-1.43-.52-2.92-1.01-4.47-1.46-1.55-.46-2.79-.68-3.69-.68-1.16,0-1.72-.33-1.65-.97,.06-.65,.74-1.29,2.04-1.94,1.81-1.17,2.72-2.2,2.72-3.11,0-.52-.52-1.55-1.55-3.11-1.04-1.55-2.3-3.17-3.79-4.86-1.49-1.68-3.01-3.3-4.57-4.86-1.55-1.55-2.85-2.65-3.88-3.3-1.43-.91-1.98-1.59-1.65-2.04,.32-.45,1-.68,2.04-.68,2.98,.26,4.66-.32,5.05-1.75,.26-1.17,.45-3.82,.58-7.96s.19-8.94,.19-14.38c0-4.14-.03-8.42-.1-12.82-.07-4.4-.17-8.51-.29-12.34-.13-3.82-.29-7.15-.48-10-.19-2.85-.36-4.86-.49-6.02-.65-2.2-1.23-3.85-1.75-4.95-.52-1.1-1.3-1.65-2.33-1.65-.78,0-1.72,.42-2.82,1.26-1.1,.84-2.5,1.98-4.18,3.4-1.16,1.3-2.43,2.72-3.79,4.27-1.36,1.55-2.62,3.08-3.79,4.57-1.16,1.49-2.14,2.79-2.91,3.88-.78,1.1-1.17,1.85-1.17,2.23,0,.26,.61,.29,1.85,.1,1.23-.19,2.55-.61,3.98-1.26,3.75-1.17,6.02-.78,6.8,1.17,.78,1.94-.26,5.18-3.11,9.71-2.07,3.37-3.11,5.44-3.11,6.22s1.1,1.17,3.3,1.17c3.75,0,5.63,1.62,5.63,4.86,0,1.55-.62,3.24-1.84,5.05-1.23,1.82-3.01,3.43-5.34,4.86-1.43,.65-2.85,1.46-4.27,2.43-1.43,.97-2.53,1.78-3.3,2.43-2.07,1.55-2.62,1.36-1.65-.58,.97-1.94,3.14-4.98,6.51-9.13l2.53-3.5-3.89-2.91c-2.07-1.17-3.34-2.78-3.79-4.86-.46-2.07-.16-4.34,.87-6.8,.65-2.07,.26-3.11-1.17-3.11-1.16,0-2.07,.19-2.72,.58-.65,.39-1.16,1.14-1.55,2.23-.39,1.1-.71,2.69-.97,4.76-.26,2.07-.46,4.73-.58,7.97-.26,3.5-.55,6.77-.87,9.81-.32,3.05-.68,4.83-1.07,5.34-1.04,1.43-2.17,1.88-3.4,1.36-1.23-.52-2.49-1.75-3.79-3.69-.65-1.04-1.14-1.94-1.46-2.72-.32-.78-.48-1.62-.48-2.53,0-.78,.16-1.78,.48-3.01,.32-1.23,.68-2.62,1.07-4.18,.65-2.46,1.29-5.96,1.94-10.49,.65-4.53,1.23-8.81,1.75-12.82,1.16-7.38,2.65-13.47,4.47-18.26,1.81-4.79,4.53-9.19,8.16-13.21,2.85-2.98,4.18-4.98,3.98-6.02-.19-1.04-1.78-.84-4.76,.58-1.69,.91-3.5,1.36-5.44,1.36-4.4,0-8.22-1.81-11.46-5.44-1.43-1.29-2.43-2.56-3.01-3.79-.58-1.23-.55-1.85,.1-1.85l1.55,.78c.26,.26,.68,.52,1.26,.78,.58,.26,1,.46,1.26,.58,2.2,1.55,4.66,2.33,7.38,2.33,2.98,0,6.93-1.17,11.85-3.5Z"/>
  <path d="M911.13,205.77c1.42-1.29,2.55-2.23,3.4-2.82,.84-.58,1.39-.87,1.65-.87,.52,0,1,.62,1.46,1.84,.45,1.23,.81,2.65,1.07,4.27,.26,1.62,.45,3.14,.58,4.56,.13,1.43,.06,2.33-.19,2.72-.39,.65-1.1,1.1-2.14,1.36-1.04,.26-2.14,.39-3.3,.39s-2.33-.13-3.5-.39c-1.16-.26-2.14-.65-2.91-1.17-.65-.52-1.59-1.1-2.82-1.75-1.23-.65-2.56-1.26-3.98-1.85-1.43-.58-2.82-1.07-4.18-1.46s-2.43-.58-3.21-.58c-.65,0-1.65,.55-3.01,1.65-1.36,1.1-2.62,2.17-3.79,3.21-3.63,3.89-6.67,5.83-9.13,5.83-1.04,0-2.04-.26-3.01-.78-.97-.52-2.11-1.23-3.4-2.14l-3.69-3.11c-.26-.39-.32-.84-.19-1.36,.13-.52,.52-.78,1.17-.78l4.47,.78c2.2,.39,5.44-.9,9.71-3.88,1.81-1.42,3.59-2.49,5.34-3.21,1.75-.71,3.72-1.07,5.93-1.07s5.57,.58,10.1,1.75h-.2c2.85,.65,4.6,.87,5.25,.68,.64-.19,1.42-.81,2.33-1.84h.19Zm-.97-108.59c0-1.04,.68-1.33,2.04-.87,1.36,.46,3.14,1.59,5.34,3.4,1.42,1.3,2.49,2.59,3.21,3.88,.71,1.3,1.07,2.91,1.07,4.86,0,5.05-2.33,10.81-6.99,17.29-1.43,1.81-2.49,3.59-3.21,5.34-.71,1.75-1.07,2.88-1.07,3.4,0,.78-.26,1.55-.78,2.33-.52,.78-1.04,1.3-1.55,1.55-.52,.26-1.07,.78-1.65,1.55-.58,.78-1.07,1.68-1.46,2.72l-.58,.78c.9-.26,1.94-.45,3.11-.58,1.17-.13,2.26-.26,3.3-.39,2.2-.13,4.01-.03,5.44,.29,1.42,.32,2.26,1,2.53,2.04,.9,3.5-.84,7.84-5.24,13.02-2.72,3.63-5.18,6.96-7.38,10-2.2,3.04-3.3,4.63-3.3,4.76,0,.65-.29,1.49-.87,2.53-.58,1.04-1.33,2.27-2.23,3.69l-2.53,3.11,6.02-3.5c4.14-3.11,7.67-5.08,10.59-5.93,2.92-.84,5.86-1.07,8.84-.68,2.07,.26,3.66,.78,4.76,1.55,1.1,.78,1.65,1.69,1.65,2.72,0,2.72-2.2,5.37-6.61,7.96-1.3,.91-2.59,1.68-3.88,2.33-1.3,.65-2.46,1.1-3.5,1.36-2.2,.26-3.37,0-3.5-.78-.13-.78,.32-2.26,1.36-4.47,.26-.39,.45-.91,.58-1.55,.13-.65,.32-1.04,.58-1.17l-14.96,8.94c-5.7,3.76-9.62,5.76-11.75,6.02-2.13,.26-3.59-.91-4.37-3.5,0-1.42,.65-3.5,1.94-6.22,1.29-2.72,3.11-5.96,5.44-9.71,1.94-3.37,3.69-6.25,5.24-8.64,1.55-2.39,2.33-3.66,2.33-3.79,0-1.04,.65-2.33,1.94-3.88l1.36-1.55c1.55-1.55,2.75-2.94,3.59-4.18,.84-1.23,1.07-1.85,.68-1.85-.91,.39-1.81,.78-2.72,1.17-.78,.26-1.65,.58-2.62,.97-.97,.39-1.98,.78-3.01,1.17-4.92,2.2-8.16,3.34-9.71,3.4-1.55,.07-2.59-1-3.11-3.21v.19c-.26-.9,.22-2.23,1.46-3.98,1.23-1.75,3.79-4.63,7.67-8.64,2.2-2.33,4.34-4.98,6.41-7.97,2.07-2.98,3.63-5.37,4.66-7.19,.52-1.29,1.29-2.98,2.33-5.05,1.04-2.07,1.94-3.69,2.72-4.86,1.55-3.24,2.59-6.34,3.11-9.32,.52-2.98,.13-5.18-1.16-6.61-1.04-1.42-1.55-2.85-1.55-4.27Zm68.58,16.12c2.33-1.29,4.79-2.2,7.38-2.72,2.59-.52,5.18-.78,7.77-.78,3.37,0,6.18,.58,8.45,1.75,2.26,1.17,3.4,2.85,3.4,5.05,0,.91-.33,1.78-.97,2.62-.65,.84-1.81,2.04-3.5,3.59-1.3,1.04-2.98,2.4-5.05,4.08-2.07,1.68-3.95,3.05-5.63,4.08-1.94,1.43-3.56,2.66-4.86,3.69-1.3,1.04-1.75,1.55-1.36,1.55,2.98,0,4.05,1.1,3.21,3.3-.84,2.2-2.82,4.79-5.93,7.77-.52,.52-1.3,1.23-2.33,2.14-1.04,.91-1.55,1.43-1.55,1.55,1.81,.52,3.92,1.62,6.31,3.3,2.4,1.68,4.05,3.43,4.95,5.24,.39,.65,.87,1.14,1.46,1.46,.58,.32,1.84,.23,3.79-.29h.78c5.31-.9,9.45-1.36,12.43-1.36,1.42,0,2.62,.23,3.59,.68,.97,.46,2.17,1.33,3.59,2.62,1.29,1.43,2.23,2.85,2.82,4.27,.58,1.43,1,3.69,1.26,6.8,.13,2.2,.1,4.66-.1,7.38s-.52,5.51-.97,8.35c-.46,2.85-.97,5.7-1.55,8.55-.58,2.85-1.14,5.51-1.65,7.96-1.81,5.31-4.47,9.42-7.96,12.34-3.5,2.91-6.87,4.37-10.1,4.37l-2.53-.97-.78,8.93c-.26,3.5-.49,6.32-.68,8.45-.19,2.14-.46,3.89-.78,5.25-.32,1.36-.75,2.43-1.26,3.2-.52,.78-1.16,1.49-1.94,2.14-1.04,.78-1.82,1.26-2.33,1.46-.52,.19-.91-.07-1.17-.78-.26-.71-.42-1.98-.48-3.79-.07-1.82-.1-4.27-.1-7.38-.26-5.7-.49-10.17-.68-13.4-.19-3.23-.42-5.73-.68-7.48-.26-1.75-.62-2.94-1.07-3.59-.46-.65-.94-1.23-1.46-1.75-.13-.26-.19-.45-.19-.58v-.39l-.78-.78,.19,.39-2.14-1.36c-.65-.26-.87-.71-.68-1.36,.19-.64,.61-.97,1.26-.97l2.92-.19h1.94l-.58-5.44c-.39-2.72-.84-4.92-1.36-6.61-.52,.26-1.49,.94-2.92,2.04-1.43,1.1-2.65,2.17-3.69,3.21-.39,.26-.87,1.23-1.46,2.91-.58,1.69-1.2,3.43-1.84,5.25-.26,2.2-.81,4.14-1.65,5.83-.84,1.68-1.52,2.53-2.04,2.53-.65,0-1.3-.32-1.94-.97-.65-.65-1.3-1.46-1.94-2.43-.65-.97-1.16-2.01-1.55-3.11-.39-1.1-.58-2.1-.58-3.01,0-1.42-1.17-1.94-3.5-1.55-.78,.65-1.43,1.46-1.94,2.43s-.78,2.36-.78,4.18c0,2.07-.07,3.69-.19,4.86-.13,1.17-.39,2.04-.78,2.62-.39,.58-.97,.87-1.75,.87s-1.88-.13-3.3-.39c-1.81-.64-3.08-2.3-3.79-4.95-.71-2.65-1.14-7.61-1.26-14.86,0-3.11-.1-5.95-.29-8.55-.19-2.59-.42-4.21-.68-4.86-.78-.52-2.23-.36-4.37,.48-2.14,.85-4.5,2.17-7.09,3.98-1.81,1.43-3.56,2.62-5.24,3.59-1.68,.97-2.79,1.39-3.3,1.26h-.19c-.52-.13-.71-.55-.58-1.26s.45-1.55,.97-2.53c.52-.97,1.23-2.04,2.14-3.2,.9-1.17,1.88-2.33,2.91-3.5,1.94-2.59,4.21-5.76,6.8-9.52,2.59-3.76,5.24-7.67,7.96-11.75,2.72-4.08,5.31-8.19,7.77-12.34,2.46-4.14,4.63-7.87,6.51-11.17,1.88-3.3,3.27-5.99,4.18-8.06,.9-2.07,1.16-3.17,.78-3.3l-5.05,2.53c-1.55,.78-2.88,1.36-3.98,1.75-1.1,.39-2.07,.58-2.92,.58s-1.65-.26-2.43-.78c-.78-.52-1.68-1.29-2.72-2.33-1.04-.9-1.55-2.78-1.55-5.63s.71-5.18,2.14-7.38c1.42-2.2,2.69-2.94,3.79-2.23,1.1,.71,.94,2.43-.49,5.15-1.04,1.68-1.59,3.08-1.65,4.18-.07,1.1,.68,2.43,2.24,3.98,.13,.13,4.6-2.78,13.4-8.74l5.64-3.11,9.91-5.05Zm.58,42.93c-.52-.26-1.17-.55-1.94-.87-.78-.32-1.49-.49-2.14-.49-.91,0-1.98,.1-3.21,.29-1.23,.2-2.43,.49-3.59,.87-1.16,.39-2.23,.78-3.2,1.17-.97,.39-1.65,.78-2.04,1.17-.26,.26-.78,.39-1.55,.39s-1.55-.13-2.33-.39c-.52,.13-1.17,.42-1.94,.87-.78,.46-1.49,.94-2.14,1.46-.26,.39-.49,.68-.68,.87s-.42,.55-.68,1.07l-6.99,7.19c-2.07,1.94-3.88,4.11-5.44,6.51-1.55,2.4-2.33,4.11-2.33,5.15h2.91c1.94,0,3.37,.29,4.27,.87,.91,.58,2.07,1.72,3.5,3.4h-.19l1.94,1.94c.52,0,.91-.13,1.17-.39l1.55-.78c2.07-1.55,3.79-3.07,5.15-4.56,1.36-1.49,2.17-2.88,2.43-4.18,.39-3.37,.94-5.02,1.65-4.95,.71,.07,1.52,1,2.43,2.82,.26,.39,1.07,.26,2.43-.39,1.36-.65,2.94-1.68,4.76-3.11,1.55-1.17,2.82-2.1,3.79-2.82,.97-.71,1.72-1.39,2.24-2.04,.52-.65,.87-1.29,1.07-1.94,.19-.65,.29-1.49,.29-2.53,.26-3.37-.13-5.57-1.16-6.61Zm-16.71,36.13c0-2.59-.19-3.89-.58-3.89-.26,.65-1.01,1.3-2.24,1.94-1.23,.65-2.3,1.23-3.21,1.75-1.43,.65-2.33,1.13-2.72,1.46-.39,.32-.46,.75-.19,1.26,.52,2.85,.97,4.53,1.36,5.05s1.1,.58,2.14,.19c2.2-.65,3.66-1.49,4.37-2.53,.71-1.04,1.07-2.78,1.07-5.24Zm11.85-101.02c.65,0,1.42,.19,2.33,.58,.9,.39,1.81,.91,2.72,1.55,1.16,.91,2.04,1.62,2.62,2.14,.58,.52,.94,.97,1.07,1.36,.13,.39,0,.81-.39,1.26-.39,.46-1.04,1.07-1.94,1.85-.65,.26-1.62,.55-2.92,.87-1.3,.32-2.65,.49-4.08,.49-.91,0-2.07,.26-3.5,.78-1.43,.52-2.59,.91-3.5,1.17-3.24,1.81-5.31,2.46-6.22,1.94-.91-.52-.46-2.07,1.36-4.66,.26-.65,.55-1.29,.87-1.94,.32-.65,.22-.97-.29-.97-2.33,0-3.95-.19-4.86-.58-.91-.39-1.17-.87-.78-1.46,.39-.58,1.36-1.17,2.91-1.75,1.55-.58,3.56-1,6.02-1.26l6.61-.97,1.94-.39Zm15.54,26.03c-.13,0-.23,.03-.29,.1-.07,.07-.23,.1-.49,.1s-.71,.07-1.36,.2c-1.43,.26-3.04,.68-4.86,1.26-1.81,.58-3.56,1.23-5.24,1.94-1.68,.71-3.17,1.36-4.47,1.94-1.3,.58-2.07,1-2.33,1.26-.52,.52-.87,1.26-1.07,2.23-.19,.97-.23,1.91-.1,2.82,0,1.04-.33,2.75-.97,5.15-.65,2.4-1.55,4.76-2.72,7.09l-.58,2.33-1.94,3.88c1.29-1.17,3.75-3.95,7.38-8.35,.65-.9,2.17-2.59,4.57-5.05,2.39-2.46,5.08-5.44,8.06-8.94,1.68-1.81,3.2-3.46,4.56-4.95,1.36-1.49,2.04-2.49,2.04-3.01h-.19Zm-10.1,21.76c0-1.29-2.46,.39-7.38,5.05l-5.05,5.05c.13,.26,.68,.1,1.65-.49,.97-.58,2.1-1.29,3.4-2.14,1.29-.84,2.56-1.78,3.79-2.82,1.23-1.04,2.17-1.88,2.82-2.53,.52-.52,.78-1.23,.78-2.14Zm1.55,44.1c0-.78-.13-1.72-.39-2.82-.26-1.1-.71-1.97-1.36-2.62v-1.75l-5.05,3.5c-2.07,1.43-3.63,2.85-4.66,4.27-1.04,1.43-1.3,3.05-.78,4.86,1.04-1.81,1.81-2.65,2.33-2.53,.52,.13,.78,1.75,.78,4.86,0,.52,.23,.68,.68,.49,.45-.19,1.78-1.13,3.98-2.82,2.98-1.42,4.47-3.23,4.47-5.44Zm26.03-8.55c0-2.85-.26-5.12-.78-6.8-.39-1.04-1.81-1.55-4.27-1.55-6.86,.39-10.75,1.81-11.65,4.27v-.19c-.26,1.68-.26,3.53,0,5.54,.26,2.01,.71,3.01,1.36,3.01,1.94,0,2.88,1.1,2.82,3.3-.07,2.2-1.14,4.27-3.21,6.22-.26,.13-.39,.42-.39,.87v5.34c0,.78,.06,1.75,.19,2.91v1.16c0,.26,.03,.52,.1,.78,.06,.26,.1,.52,.1,.78,.13,2.85,.19,5.24,.19,7.19s.06,3.11,.19,3.5h2.14c1.68,0,3.4-1.46,5.15-4.37,1.75-2.91,3.4-7.09,4.95-12.53,1.04-2.98,1.81-6.28,2.33-9.91,.52-3.62,.78-6.8,.78-9.52Z"/>
</svg>