<svg xmlns="http://www.w3.org/2000/svg" width="3.7mm" height="4mm" viewBox="0 0 10.5 11.4"><path d="M2.6,3.6V1.2H.2V.9H2.6L2.9,0l.5,1.2a.4.4,0,0,1-.1.3V4.4c0,.1-.4.4-.6.4H2.6V3.9H1C.9,4.6.9,5.6.8,6.3h2l.3-.8.6,1.2L3.5,7a10.8,10.8,0,0,1-.6,3.9c-.2.3-.3.5-.7.5a4.1,4.1,0,0,0-.1-1.2,1.5,1.5,0,0,0-.5-.6h.9a18.9,18.9,0,0,0,.3-2.9H.8l-.2.8L0,6.5l.2-.3c.1-.9.2-2.6.2-3.4l.7.8Z"/><path d="M6.5.4c0,.2,0,.2-.3.2l-.3.8H7.5L7.8.9l.7.9H8.2A13.4,13.4,0,0,1,7.1,3.3H8.8l.4-.6.7.8-.3.3V8L9,8.2H8.9V7.7H5.1v.4c0,.1-.2.3-.5.3h.1A3,3,0,0,1,4,11.1a.4.4,0,0,1-.7-.2.8.8,0,0,1,.3-.7,2.2,2.2,0,0,0,.9-1.8h0V3.7L3.4,4.9V4.7A14.7,14.7,0,0,0,5.6,0ZM5,3.1l.2.2H6.9c.2-.5.4-1.1.6-1.5H5.7Zm.1,2.2H6.7V3.6H5.1Zm0,2.1H6.7V5.6H5.1Zm.8,3.4a6.1,6.1,0,0,0-.3-2.3h.1C7.1,9.9,6.4,11.7,5.9,10.8Zm1.9,0a6.2,6.2,0,0,0-.7-2.3h.1C9,9.6,8.5,11.6,7.8,10.8ZM7.3,3.6V5.3H8.9V3.6Zm0,2V7.4H8.9V5.6ZM10,11.1A7.1,7.1,0,0,0,8.7,8.5h.1C11.1,9.5,10.7,11.7,10,11.1Z"/></svg>